/* XPM */
static char *b5db8839740a4055a120a3be9a65247f7I47g1uirEKUv5xp[] = {
/* columns rows colors chars-per-pixel */
"70 70 13 1 ",
"  c None",
". c #573831",
"X c #573D3B",
"o c #633B41",
"O c #704C44",
"+ c #B35D5D",
"@ c #936C59",
"# c #BD7B55",
"$ c #BD6E64",
"% c #CF9051",
"& c #C4A591",
"* c #CCAF93",
"= c #D9C4A5",
/* pixels */
"                                                                      ",
"                                                                      ",
"                                                                      ",
"                                                                      ",
"                                                                      ",
"                                                                      ",
"                                                                      ",
"                                                                      ",
"                                                                      ",
"                                                                      ",
"                                                                      ",
"                                                                      ",
"                                                                      ",
"                                                                      ",
"                                                                      ",
"                                                                      ",
"                                                                      ",
"                                                                      ",
"                                                                      ",
"                                                                      ",
"                             ooo  ooo                                 ",
"                             ooo  ooo                                 ",
"                             ooo  ooo                                 ",
"                          ooo+++oo$$$ooo                              ",
"                          ooo+++oo$$$ooo                              ",
"                          ooo+++oo$$$ooo                              ",
"                          OOOOOO+++++ooo                              ",
"                          OOOOOO+++++ooo                              ",
"                        OO******==+++oooOOO                           ",
"                        OO******==+++oooOOO                           ",
"                        OO******==+++oooOOO                           ",
"                        OO***==============OO                         ",
"                        OO***==============OO                         ",
"                        OO***==============OO                         ",
"                     OOO**========...======..                         ",
"                     OOO**========...======..                         ",
"                     OOO================%%%==OOO                      ",
"                     OOO================%%%==OOO                      ",
"                     OOO================%%%==OOO                      ",
"                  OOO***==@@@===========+++==&&&OOO                   ",
"                  OOO***==@@@===========+++==&&&OOO                   ",
"                  OOO***==@@@===========+++==&&&OOO                   ",
"                  OOO*****@@@================&&&OOO                   ",
"                  OOO*****@@@================&&&OOO                   ",
"                     OOOOO******===========**OOO                      ",
"                     OOOOO******===========**OOO                      ",
"                     OOOOO******===========**OOO                      ",
"                     XXX*******************OO                         ",
"                     XXX*******************OO                         ",
"                     XXX*******************OO                         ",
"                        XX%%%XXXXXXXX###XXX                           ",
"                        XX%%%XXXXXXXX###XXX                           ",
"                                                                      ",
"                                                                      ",
"                                                                      ",
"                                                                      ",
"                                                                      ",
"                                                                      ",
"                                                                      ",
"                                                                      ",
"                                                                      ",
"                                                                      ",
"                                                                      ",
"                                                                      ",
"                                                                      ",
"                                                                      ",
"                                                                      ",
"                                                                      ",
"                                                                      ",
"                                                                      "
};
