/* XPM */
static char *result[] = {
/* columns rows colors chars-per-pixel */
"70 70 13 1 ",
"  c #573831",
". c #573D3B",
"X c #633B41",
"o c #704C44",
"O c #B35D5D",
"+ c #936C59",
"@ c #BD7B55",
"# c #BD6E64",
"$ c #CF9051",
"% c #C4A591",
"& c #CCAF93",
"* c #D9C4A5",
"= c None",
/* pixels */
"======================================================================",
"======================================================================",
"======================================================================",
"======================================================================",
"======================================================================",
"======================================================================",
"======================================================================",
"======================================================================",
"======================================================================",
"======================================================================",
"======================================================================",
"======================================================================",
"======================================================================",
"======================================================================",
"======================================================================",
"======================================================================",
"======================================================================",
"======================================================================",
"======================================================================",
"======================================================================",
"======================================================================",
"======================================================================",
"======================================================================",
"======================================================================",
"======================================================================",
"======================================================================",
"=====================================XXX===XXX========================",
"=====================================XXX===XXX========================",
"=====================================XXX===XXX========================",
"==================================XXX###XXXOOOXXX=====================",
"==================================XXX###XXXOOOXXX=====================",
"==================================XXXOOOOOOoooooo=====================",
"==================================XXXOOOOOOoooooo=====================",
"==================================XXXOOOOOOoooooo=====================",
"===============================oooXXXOOO***&&&&&&oo===================",
"===============================oooXXXOOO***&&&&&&oo===================",
"===============================oooXXXOOO***&&&&&&oo===================",
"=============================oo***************&&&oo===================",
"=============================oo***************&&&oo===================",
"=============================oo***************&&&oo===================",
"=============================  ******   *********&&ooo================",
"=============================  ******   *********&&ooo================",
"=============================  ******   *********&&ooo================",
"==========================ooo**$$$*****************ooo================",
"==========================ooo**$$$*****************ooo================",
"==========================ooo**$$$*****************ooo================",
"=======================ooo%%%**OOO************+++**&&&ooo=============",
"=======================ooo%%%**OOO************+++**&&&ooo=============",
"=======================ooo%%%**OOO************+++**&&&ooo=============",
"=======================ooo%%%*****************+++&&&&&ooo=============",
"=======================ooo%%%*****************+++&&&&&ooo=============",
"==========================ooo&&************&&&&&&ooooo================",
"==========================ooo&&************&&&&&&ooooo================",
"==========================ooo&&************&&&&&&ooooo================",
"=============================oo&&&&&&&&&&&&&&&&&&&&...================",
"=============================oo&&&&&&&&&&&&&&&&&&&&...================",
"=============================oo&&&&&&&&&&&&&&&&&&&&...================",
"===============================...@@@.........$$$..===================",
"===============================...@@@.........$$$..===================",
"===============================...@@@.........$$$..===================",
"======================================================================",
"======================================================================",
"======================================================================",
"======================================================================",
"======================================================================",
"======================================================================",
"======================================================================",
"======================================================================",
"======================================================================",
"======================================================================"
};
