/* XPM */
static char *result[] = {
/* columns rows colors chars-per-pixel */
"70 70 8 1 ",
"  c #323821",
". c #C43F31",
"X c #88A043",
"o c #9FBC4D",
"O c #D8B78F",
"+ c #FFD7A8",
"@ c white",
"# c None",
/* pixels */
"######################################################################",
"######################################################################",
"######################################################################",
"######################################################################",
"######################################################################",
"######################################################################",
"######################################################################",
"######################################################################",
"######################################################################",
"######################################################################",
"######################################################################",
"######################################################################",
"##################                                     ###############",
"##################                                     ###############",
"##################                                     ###############",
"###############      XXXXXXXXXXXXoooooooooooooooooooooo   ############",
"###############      XXXXXXXXXXXXoooooooooooooooooooooo   ############",
"###############      XXXXXXXXXXXXoooooooooooooooooooooo   ############",
"############   ...   XXXXXXXXXXXXXXXXooooooXXXXXXXXXooo   ############",
"############   ...   XXXXXXXXXXXXXXXXooooooXXXXXXXXXooo   ############",
"############   ...   XXXXXXXXXXXXXXXXooooooXXXXXXXXXooo   ############",
"############   ...   XXX@@@   @@@XXXXooo   ooooooooo      ############",
"############   ...   XXX@@@   @@@XXXXooo   ooooooooo      ############",
"############   ...   XXX@@@   @@@XXXXooo   ooooooooo      ############",
"############         XXX@@@   @@@XXXXoooooooooooooooooo   ############",
"############         XXX@@@   @@@XXXXoooooooooooooooooo   ############",
"############         XXX@@@   @@@XXXXoooooooooooooooooo   ############",
"###############   ...   @@@@@@@@@XXXXoooooooooooooooooo   ############",
"###############   ...   @@@@@@@@@XXXXoooooooooooooooooo   ############",
"###############   ...   @@@@@@@@@XXXXoooooooooooooooooo   ############",
"###############   ...   XXXXXXXXXXXXXoooooooooooooooooo   ############",
"###############   ...   XXXXXXXXXXXXXoooooooooooooooooo   ############",
"###############   ...   XXXXXXXXXXXXXoooooooooooooooooo   ############",
"###############         XXXXXXXXXXXXXXXXooo               ############",
"###############         XXXXXXXXXXXXXXXXooo               ############",
"###############         XXXXXXXXXXXXXXXXooo               ############",
"###############         XXXXXXXXXXXXXXXXooo               ############",
"#####################      XXXXXXooooooooooooo   #####################",
"#####################      XXXXXXooooooooooooo   #####################",
"#####################      XXXXXXooooooooooooo   #####################",
"########################   XXXOOO+++++++++++++   #####################",
"########################   XXXOOO+++++++++++++   #####################",
"########################   XXXOOO+++++++++++++   #####################",
"##################         XXXOOO+++++++++++++   #####################",
"##################         XXXOOO+++++++++++++   #####################",
"##################         XXXOOO+++++++++++++   #####################",
"##################   ooooooXXXOOO+++++++++++++   #####################",
"##################   ooooooXXXOOO+++++++++++++   #####################",
"##################   ooooooXXXOOO+++++++++++++   #####################",
"##################      XXXXXXXXXooooOOOOOOooo   #####################",
"##################      XXXXXXXXXooooOOOOOOooo   #####################",
"##################      XXXXXXXXXooooOOOOOOooo   #####################",
"#####################      XXXoooooooooooooooo   #####################",
"#####################      XXXoooooooooooooooo   #####################",
"#####################      XXXoooooooooooooooo   #####################",
"########################   XXXooo       XXXooo   #####################",
"########################   XXXooo       XXXooo   #####################",
"########################   XXXooo       XXXooo   #####################",
"########################         ####         ########################",
"########################         ####         ########################",
"########################         ####         ########################",
"######################################################################",
"######################################################################",
"######################################################################",
"######################################################################",
"######################################################################",
"######################################################################",
"######################################################################",
"######################################################################",
"######################################################################"
};
