/* XPM */
static char *c17b73a7bb704d93d60869ca740b18a8OaPGirwfBk2l4QYm[] = {
/* columns rows colors chars-per-pixel */
"70 70 8 1 ",
"  c None",
". c #323821",
"X c #C43F31",
"o c #88A043",
"O c #9FBC4D",
"+ c #D8B78F",
"@ c #FFD7A8",
"# c white",
/* pixels */
"                                                                      ",
"                                                                      ",
"                                                                      ",
"                                                                      ",
"                                                                      ",
"                                                                      ",
"                                                                      ",
"              ..........................................              ",
"              ..........................................              ",
"              ..........................................              ",
"          .......ooooooooooooooOOOOOOOOOOOOOOOOOOOOOOOOO...           ",
"          .......ooooooooooooooOOOOOOOOOOOOOOOOOOOOOOOOO...           ",
"          .......ooooooooooooooOOOOOOOOOOOOOOOOOOOOOOOOO...           ",
"          .......ooooooooooooooOOOOOOOOOOOOOOOOOOOOOOOOO...           ",
"       ...XXXX...ooooooooooooooooooOOOOOOOooooooooooOOOO...           ",
"       ...XXXX...ooooooooooooooooooOOOOOOOooooooooooOOOO...           ",
"       ...XXXX...ooooooooooooooooooOOOOOOOooooooooooOOOO...           ",
"       ...XXXX...oooo###....###ooooOOO....OOOOOOOOOO.......           ",
"       ...XXXX...oooo###....###ooooOOO....OOOOOOOOOO.......           ",
"       ...XXXX...oooo###....###ooooOOO....OOOOOOOOOO.......           ",
"       ...XXXX...oooo###....###ooooOOO....OOOOOOOOOO.......           ",
"       ..........oooo###....###ooooOOOOOOOOOOOOOOOOOOOOO...           ",
"       ..........oooo###....###ooooOOOOOOOOOOOOOOOOOOOOO...           ",
"       ..........oooo###....###ooooOOOOOOOOOOOOOOOOOOOOO...           ",
"          ....XXX....##########ooooOOOOOOOOOOOOOOOOOOOOO...           ",
"          ....XXX....##########ooooOOOOOOOOOOOOOOOOOOOOO...           ",
"          ....XXX....##########ooooOOOOOOOOOOOOOOOOOOOOO...           ",
"          ....XXX....##########ooooOOOOOOOOOOOOOOOOOOOOO...           ",
"          ....XXX....ooooooooooooooOOOOOOOOOOOOOOOOOOOOO...           ",
"          ....XXX....ooooooooooooooOOOOOOOOOOOOOOOOOOOOO...           ",
"          ....XXX....ooooooooooooooOOOOOOOOOOOOOOOOOOOOO...           ",
"          ...........oooooooooooooooooOOOO.................           ",
"          ...........oooooooooooooooooOOOO.................           ",
"          ...........oooooooooooooooooOOOO.................           ",
"          ...........oooooooooooooooooOOOO.................           ",
"                 .......oooooooOOOOOOOOOOOOOO....                     ",
"                 .......oooooooOOOOOOOOOOOOOO....                     ",
"                 .......oooooooOOOOOOOOOOOOOO....                     ",
"                     ...oooo+++@@@@@@@@@@@@@@....                     ",
"                     ...oooo+++@@@@@@@@@@@@@@....                     ",
"                     ...oooo+++@@@@@@@@@@@@@@....                     ",
"                     ...oooo+++@@@@@@@@@@@@@@....                     ",
"              ..........oooo+++@@@@@@@@@@@@@@....                     ",
"              ..........oooo+++@@@@@@@@@@@@@@....                     ",
"              ..........oooo+++@@@@@@@@@@@@@@....                     ",
"              ...OOOOOOOoooo+++@@@@@@@@@@@@@@....                     ",
"              ...OOOOOOOoooo+++@@@@@@@@@@@@@@....                     ",
"              ...OOOOOOOoooo+++@@@@@@@@@@@@@@....                     ",
"              ...OOOOOOOoooo+++@@@@@@@@@@@@@@....                     ",
"              .......ooooooooooOOOO+++++++OOO....                     ",
"              .......ooooooooooOOOO+++++++OOO....                     ",
"              .......ooooooooooOOOO+++++++OOO....                     ",
"                 .......ooooOOOOOOOOOOOOOOOOO....                     ",
"                 .......ooooOOOOOOOOOOOOOOOOO....                     ",
"                 .......ooooOOOOOOOOOOOOOOOOO....                     ",
"                 .......ooooOOOOOOOOOOOOOOOOO....                     ",
"                     ...ooooOOO.......ooooOOO....                     ",
"                     ...ooooOOO.......ooooOOO....                     ",
"                     ...ooooOOO.......ooooOOO....                     ",
"                     ..........    ..........                         ",
"                     ..........    ..........                         ",
"                     ..........    ..........                         ",
"                     ..........    ..........                         ",
"                                                                      ",
"                                                                      ",
"                                                                      ",
"                                                                      ",
"                                                                      ",
"                                                                      ",
"                                                                      "
};
