/* XPM */
static char *result[] = {
/* columns rows colors chars-per-pixel */
"70 70 65 1 ",
"  c #4D2712",
". c #4E2812",
"X c #522B14",
"o c #532F18",
"O c #593117",
"+ c #56321A",
"@ c #5A351D",
"# c #5E391F",
"$ c #603A1F",
"% c #5C3720",
"& c #5E3A21",
"* c #623D23",
"= c #644126",
"- c #664529",
"; c #69462A",
": c #67482B",
"> c #6A4A2C",
", c #6C4E31",
"< c #654F3C",
"1 c #704E31",
"2 c #6E5234",
"3 c #66523F",
"4 c #6C553E",
"5 c #715536",
"6 c #765837",
"7 c #735738",
"8 c #755A3A",
"9 c #795E3E",
"0 c #7B603F",
"q c #675240",
"w c #695642",
"e c #6C5A46",
"r c #6D5C48",
"t c #715C45",
"y c #7A5F40",
"u c #715E48",
"i c #7D6241",
"p c #75624D",
"a c #756551",
"s c #786751",
"d c #7B6A54",
"f c #7E6E5A",
"g c #7F705B",
"h c #7F7262",
"j c #806545",
"k c #836947",
"l c #856B4B",
"z c #886E4E",
"x c #8B714F",
"c c #876E50",
"v c #886F51",
"b c #8C7455",
"n c #81715C",
"m c #907756",
"M c #907857",
"N c #937B5C",
"B c #847562",
"V c #867966",
"C c #897B67",
"Z c #8C7E6B",
"A c #977F61",
"S c #8E806C",
"D c #9A8465",
"F c #938574",
"G c None",
/* pixels */
"GGGGGGGGGGGGGGGGGGGGGGGGGGGGGGGGGGGGGGGGGGGGGGGGGGGGGGGGGGGGGGGGGGGGGG",
"GGGGGGGGGGGGGGGGGGGGGGGGGGGGGGGGGGGGGGGGGGGGGGGGGGGGGGGGGGGGGGGGGGGGGG",
"GGGGGGGGGGGGGGGGGGGGGGGGGGGGGGGGGGGGGGGGGGGGGGGGGGGGGGGGGGGGGGGGGGGGGG",
"GGGGGGGGGGGGGGGGGGGGGGGGGGGGG;111111*1111111GGGGGGGGGGGGGGGGGGGGGGGGGG",
"GGGGGGGGGGGGGGGGGGGGGGGG>1;;*xxxxzlzOzllllll$==;=GGGGGGGGGGGGGGGGGGGGG",
"GGGGGGGGGGGGGGGGGGGGG1;>mmmN$xxxxlllOzllllllO9969*=*GGGGGGGGGGGGGGGGGG",
"GGGGGGGGGGGGGGGGGGGGG1;;mmmm$xxxxlllOlllzllk$6609***GGGGGGGGGGGGGGGGGG",
"GGGGGGGGGGGGGGGGGG**$bbmmmmM$DDDDNNM$DNNNNmm$6009988%*GGGGGGGGGGGGGGGG",
"GGGGGGGGGGGGGGGGG;kk$zDDDDDD$66666kk$06606ji$xmxbb67*,&GGGGGGGGGGGGGGG",
"GGGGGGGGGGGGGGGG>zzz$A66xjji$ij066ji$000ijii=;;;iybb*52&&GGGGGGGGGGGGG",
"GGGGGGGGGGGGGGGG>zzz$A66xjii*j9j66ji$600iiii$;;;jibb*5,&&GGGGGGGGGGGGG",
"GGGGGGGGGGGGGGG;lxNN*666zjjj$ij9j6jj;066iiii;;kkiyiy=c555@GGGGGGGGGGGG",
"GGGGGGGGGGGGGGG;lN89*6zzjjjj;00jj9jj*9iiji00;k00yyiy-yl55@GGGGGGGGGGGG",
"GGGGGGGGGGGGG==yb896*6zzjjjj;9j9j0yj;9iiiiii;i00iyiy:yill2#GGGGGGGGGGG",
"GGGGGGGGGGGGG*=yb698*6zzjjjj;9j90yjj;9jjii00;iiiiyyi:yilc,#GGGGGGGGGGG",
"GGGGGGGGGGGGG;;b9889=jyjjjjj;j9jj9jy;000iii0;ji0yyyy>iy09c@GGGGGGGGGGG",
"GGGGGGGGGGGG-yyv8989;ijjjjyj>yyy00ki;i000jii>i0iyyyi,9009z,+@GGGGGGGGG",
"GGGGGGGGGGGG*vc88898;iijjjjj>yyy00jk;iijj0ji>yiiii0t200990bo+GGGGGGGGG",
"GGGGGGGGGGGG-vc88689,jjijjjj>yyy00ji;kj00jii>i00ii0i290909b++GGGGGGGGG",
"GGGGGGGGGGGG*vc89688>ijjjjii>yyj00jj;k0j0jii>y0009i0209099b++GGGGGGGGG",
"GGGGGGGGGGGG%8886666,iiji=ij>yyy00jj;kjjiiii>0**i90i,999998XXGGGGGGGGG",
"GGGGGGGGGGGG@%+%%********F;;>yyy00ji>kj0iiii>=FF&&&*&&&@#@@X.GGGGGGGGG",
"GGGGGGGGGGGG+ccdnnnnBBBBBcZZ;yyy00jj;kiiiiii=FsdVBgggffgfddXXGGGGGGGGG",
"GGGGGGGGGGGGodddnnnbCBBBBcZZ*yyi00ji;kiiiiii=DddBBgffcfggddXXGGGGGGGGG",
"GGGGGGGGGGGG+tttuuspdddddddfZ*y906ij;j0i00==DddsdauptppppeeX.GGGGGGGGG",
"GGGGGGGGGGGG+tt8ppppdddddcfdXy9y00ji;k0jjjj0odddaapipprpieeXXGGGGGGGGG",
"GGGGGGGGGGGG+XXoXXOXXXXXXdXO,yyy09jj;kjj000j>XdsXXXXXXXX.XXXXGGGGGGGGG",
"GGGGGGGGGGGG+XXoXOXXOXooOdOX,yyy99ji;jj0j0j0>XddOXXXXXXXXXXXXGGGGGGGGG",
"GGGGGGGGGGGG+===;;;>%>,>>X>519y8iiii;k00iiji>>oX>>>>>::::::XXGGGGGGGGG",
"GGGGGGGGGGGGo8776678&yyy0>5>,9yy9iii>liiii0i>0>:00002778777XXGGGGGGGGG",
"GGGGGGGGGGGGo6766787*iyy09221y9yy9ii;l0ji0ii>i999i002775775XXGGGGGGGGG",
"GGGGGGGGGGGGX6777678=yyy0i,,,9y89ti0:zj00i00>i0t99092777777XXGGGGGGGGG",
"GGGGGGGGGGGGX7775878>yyy00:,,89089ii:l00i0i0>i99i09i2777777o.GGGGGGGGG",
"GGGGGGGGGGGGo5776777>y899t::,08089ii:di00i0j>i9999992755757.oGGGGGGGGG",
"GGGGGGGGGGGGX7777777:i989898,90799ii:l0ii00i,iy98i892255572oXGGGGGGGGG",
"GGGGGGGGGGGGX7777777:i8y9980,88098ii-zi0i0i0,i9988082275557.XGGGGGGGGG",
"GGGGGGGGGGGGX7777677:i887888>984890j-kii0000,y98i898,555722+XGGGGGGGGG",
"GGGGGGGGGGGGX5575777:i888888,9898@$$$*&#00002i99i808,557272.XGGGGGGGGG",
"GGGGGGGGGGGGX7775577>i877688>897$ZSCCSCZ#999209888e9,222722oXGGGGGGGGG",
"GGGGGGGGGGGGX7575587:i897858,979$ZCSSCCC#9092i898i08,252252XXGGGGGGGGG",
"GGGGGGGGGGGGX6725657>0887877,788#spppppp%99y2i888889;422222XXGGGGGGGGG",
"GGGGGGGGGGGG.777557529755777,088@uppXppi@809,i888686-222222o.GGGGGGGGG",
"GGGGGGGGGGGGX7227757,9557777,777XttuXttt.777,y8888t6-222222.oGGGGGGGGG",
"GGGGGGGGGGGG.7775575>i575775,707XtutXtreX888,i888988-222222..GGGGGGGGG",
"GGGGGGGGGGGG 7777777,i275577,887X4w44444.887,i898988-222222X.GGGGGGGGG",
"GGGGGGGGGGGG 5572722>i725&75,778;XX.XXX.:877,y&*8888-,,222,..GGGGGGGGG",
"GGGGGGGGGGGGXo++@@@%##&&&S#&,5856;:;+>;>8788,&SS*%&%%++%%o+..GGGGGGGGG",
"GGGGGGGGGGGG.+++@@%@@&&&&S##,5587:>:+;>-7777>&SS%*%%%%%o%o+..GGGGGGGGG",
"GGGGGGGGGGGG.sdsddgdgSnnSsSS&5777778=0877788*Sapnndddddffpd..GGGGGGGGG",
"GGGGGGGGGGGG.e44uuuuppappsspS&548877=77778&*Spaapprrttrur44..GGGGGGGGG",
"GGGGGGGGGGGGXw4wuuuupapapsss.7554777=5777752.pppppuutrtttw4..GGGGGGGGG",
"GGGGGGGGGGGG.4w4ututppapssss.5557754=5578725Xpaapuuurtrrt44..GGGGGGGGG",
"GGGGGGGGGGGG.XX .....X...s..=5554555=2475752=.ru  .......X. .GGGGGGGGG",
"GGGGGGGGGGGG.$$*==::@:::,.--=7555577=7755222=>..--;;*=*****  GGGGGGGGG",
"GGGGGGGGGGGG 222,222@5545:55=5555555#5552527=t::t888*,,,,,,  GGGGGGGGG",
"GGGGGGGGGGGG 22,,222&5225255&7555555@2225222&8886888*,2<,,,  GGGGGGGGG",
"GGGGGGGGGGGG.22,2,2,=2525255=5745555+5252222*y888997&,,,,>,  GGGGGGGGG",
"GGGGGGGGGGGG.2222222&2242224&5535554o5222322&t887774&>,<<,,  GGGGGGGGG",
"GGGGGGGGGGGG +X@@%@#&&@&%%+%++oooo .ooooo+%%@%%%@@%+++ooX    GGGGGGGGG",
"GGGGGGGGGGGG.ppppaaaaaaadaddddahdggg.hhgdhaaadaaaaaaaappaap  GGGGGGGGG",
"GGGGGGGGGGGG.pppaaaaaaaaaddaadaaghhh.hhhhdafddaaaaaaaaaaaaa  GGGGGGGGG",
"GGGGGGGGGGGG.BnVVVhSVVVVVVZSZVSSZFFF.FFFZZZZZVVhVVVVVBVVBBB  GGGGGGGGG",
"GGGGGGGGGGGG.3qq333ww3w3wrrrrrwrrraa.arrrrrrrreeewwww<<33<<  GGGGGGGGG",
"GGGGGGGGGGGG.3q3333333wwwwwrwrrrrraa.arrrrrrrreeewwww<<<<<<  GGGGGGGGG",
"GGGGGGGGGGGG.3qq333qqqwweerwrrrwrraa arrrreeerwrrweqwq<<<<<  GGGGGGGGG",
"GGGGGGGGGGGG.<q<<qqqwwwwwwwrrwrrrraa arrrrrrrrwwwwqwwqw<<<<  GGGGGGGGG",
"GGGGGGGGGGGG.<<<3wwwwwwwwerwerrwrraa arrrrrrrrrrewwwwwqww<<  GGGGGGGGG",
"GGGGGGGGGGGG  .. .........   .. ....        .  .             GGGGGGGGG",
"GGGGGGGGGGGG   .  .......... ...........  .......... .  .    GGGGGGGGG",
"GGGGGGGGGGGGGGGGGGGGGGGGGGGGGGGGGGGGGGGGGGGGGGGGGGGGGGGGGGGGGGGGGGGGGG"
};
