/* XPM */
static char *result[] = {
/* columns rows colors chars-per-pixel */
"70 70 81 1 ",
"  c #141B1B",
". c #28292A",
"X c #393638",
"o c #364239",
"O c #433F41",
"+ c #443F41",
"@ c #4C4648",
"# c #4E4749",
"$ c #4E474A",
"% c #4E484A",
"& c #4F4B4C",
"* c #4F4C4C",
"= c #52524F",
"- c #535450",
"; c #535550",
": c #535651",
"> c #565D55",
", c #575F56",
"< c #604B49",
"1 c #614B49",
"2 c #624B49",
"3 c #684C49",
"4 c #694D49",
"5 c #7E5147",
"6 c #785048",
"7 c #526253",
"8 c #576056",
"9 c #586157",
"0 c #5A675A",
"q c #5B675A",
"w c #5B685B",
"e c #5C695C",
"r c #5C6A5C",
"t c #5C6B5C",
"y c #5E6E5F",
"u c #5E6F5F",
"i c #73745F",
"p c #5F7160",
"a c #5F7260",
"s c #D2673D",
"d c #D0673E",
"f c #D1673E",
"g c #DF6B3B",
"h c #DC6A3C",
"j c #DD6D3E",
"k c #DE6D3E",
"l c #E46D3A",
"z c #8E5446",
"x c #8F5446",
"c c #895F4E",
"v c #8D5D4C",
"b c #965746",
"n c #A15944",
"m c #AC5C43",
"M c #AD5C43",
"N c #AF5D42",
"B c #AE5D43",
"V c #946952",
"C c #957057",
"Z c #937058",
"A c #92795E",
"S c #B46F4F",
"D c #B06F50",
"F c #A17C5D",
"G c #A27C5D",
"H c #A37D5D",
"J c #CA6E47",
"K c #C96E48",
"L c #C78358",
"P c #C2845A",
"I c #C6855A",
"U c #C7855B",
"Y c #E08753",
"T c #EA8A52",
"R c #EA8F57",
"E c #E18C58",
"W c #E28D58",
"Q c #F99355",
"! c #FF9554",
"~ c #FFE18D",
"^ c None",
/* pixels */
"^^^^^^^^^^^^^^^^^^^^^^^^^^^^^^^^^^^^^^^^^^^^^^^^^^^^^^^^^^^^^^^^^^^^^^",
"^^^^^^^^^^^^^^^^^^^^^^^^^^^^^^^^^^^^^^^^^^^^^^^^^^^^^^^^^^^^^^^^^^^^^^",
"^^^^^^^^^^^^^^^^^^^^^^^^^^^^^^^^^^^^^^^^^^^^^^^^^^^^^^^^^^^^^^^^^^^^^^",
"^^^^^^^^^^^^^^^^^^^^^^^^^^^^^^^^^^^^^^^^^^^^^^^^^^^^^^^^^^^^^^^^^^^^^^",
"^^^^^^^^^^^^^^^^^^^^^^^^^^^^^^^^^^^^^^^^^^^^^^^^^^^^^^^^^^^^^^^^^^^^^^",
"^^^^^^^^^^^^^^^^^^^^^^^^^^^^^^^^^^^^^^^^^^^^^^^^^^^^^^^^^^^^^^^^^^^^^^",
"^^^^^^^^^^^^^^^^^^^^^^^^^^^^^^^^^^^^^^^^^^^^^^^^^^^^^^^^^^^^^^^^^^^^^^",
"^^^^^^^^^^^^^%%%%%$$$$$$$^^^^^^^^^^^^::::=$$$$%%%^^^^^^^^^^^^^^^^^^^^^",
"^^^^^^^^^^^^^%%%%%$$$$$$$^^^^^^^^^^^^::::=$$$$%%%^^^^^^^^^^^^^^^^^^^^^",
"^^^^^^^^^^^%%%$$**:::::::--^^^^^^^^>>ppaar::::==$%%^^^^^^^^^^^^^^^^^^^",
"^^^^^^^^^^^%%%$$**:::::::--^^^^^^^^>>ppaar::::==$%%^^^^^^^^^^^^^^^^^^^",
"^^^^^^^^^%%%%*::>>ppppppprr:^^^^^^^pp^^^^pppaatt=%%%%^^^^^^^^^^^^^^^^^",
"^^^^^^^^^%%%%*::>>ppppppprr:^^^^^^^pp^^^^pppaatt=%%%%^^^^^^^^^^^^^^^^^",
"^^^^^^^%%%%&&,pppp^^^^^ppppp^^^^^^^^^^^^^^^^^^aaq$$%%%%^^^^^^^^^^^^^^^",
"^^^^^^^%%**,,ppp^^^^^^^^^^^p^^^^^^^^^^^^^^^^^^^^r==%%%%^^^^^^^^^^^^^^^",
"^^^^^^^%%**,,ppp^^^^^^^^^^^p^^^^^^^^^^^^^^^^^^^^r==%%%%^^^^^^^^^^^^^^^",
"^^^^^^^$$::ppp^^^^^^^^^^^^^^^^^^^^^^^^^^^^^^^^^^aww%%%%^^^^^^^^^^^^^^^",
"^^^^^^^$$::ppp^^^^^^^^^^^^^^^^^^^^^^^^^^^^^^^^^^aww%%%%^^^^^^^^^^^^^^^",
"^^^^^^^$$::ppp^^^^^^^^^^^^^^^^^^^^^^^^^^^^^^^^^^^ww%%%%^^^^^^^^^^^^^^^",
"^^^^^^^$$::ppp^^^^^^^^^^^^^^^^^^^^^^^^^^^^^^^^^^^ww%%%%^^^^^^^^^^^^^^^",
"^^^^^^^$$::pp^^^^^^^^^^^^^^^^^^^^^^^^^^^^^^^^^^^^ww%%%%^^^^^^^^^^^^^^^",
"^^^^^^^$$::pp^^^^^^^^^^^^^^^^^^^^^:;;^^^^^^^^^^^^qq%%%%^^^^^^^^^^^^^^^",
"^^^^^^^$$::pp^^^^^^^^^^^^^^^^^^^^^:;;^^^^^^^^^^^^qq%%%%^^^^^^^^^^^^^^^",
"^^^^^^^$$::aa^^^^^^^^^^^^^^^^^^^ppa00%%^^^^^^^^^^qq%%^^^^^^^^^^^^^^^^^",
"^^^^^^^$$::aa^^^^^^^^^^^^^^^^^^^ppa00%%^^^^^^^^^^qq%%^^^^^^^^^^^^^^^^^",
"^^^^^^^^^;;qq^^^^^^^^^^^^^^^^^^^pppee%%^^^^^^^^^^99%%^^^^^^^^^^^^^^^^^",
"^^^^^^^^^;;qq^^^^^^^^^^^^^^^^^^^pppee%%^^^^^^^^^^99%%^^^^^^^^^^^^^^^^^",
"^^^^^^^^^^^%%^^^^^^^^^^^^^^^^^^^^^ppp^^^^^^^^^pp0$$^^^^^^^^^^^^^^^^^^^",
"^^^^^^^^^^^^^^^^^^^^^^^^^^^^^^^^^^^^^^^^^lll^^^^^^^^^^^^^^^^^^^^^^^^^^",
"^^^^^^^^^^^^^^^^^^^^^^^^^^^^^^^^^^^^^^^^^lll^^^^^^^^^^^^^^^^^^^^^^^^^^",
"^^^^^^^^^^^^^^^^^^^^^^^^^^^^^^^^^^^^^^^lllllll^^^^^^^^^^^^^^^^^^^^^^^^",
"^^^^^^^^^^^^^^^^^^^^^^^^^^^^^^^^^^^^^^^lllllll^^^^^^^^^^^^^^^^^^^^^^^^",
"^^^^^^^^^^^,,p^^^^^^^^^::::=$$^^^^^^^^^kkJJJJJ^^^^^^^^^^^^^^^^^^^^^^^^",
"^^^^^^^^^^^,,p^^^^^^^^^::::=$$^^^^^^^^^kkJJJJJ^^^^^^^^^^^^^^^^^^^^^^^^",
"^^^^^^^^^::ppp^^^^^^^ppppppr==%%^^^^^^^SSppppppp^^^^^^^^^^^^^^^^^^^^^^",
"^^^^^^^^^::ppppp^^^^^pppppppqq%%^^^^^^^pppppppppp^^^^^^^^^^^^^^^^^^^^^",
"^^^^^^^^^::ppppp^^^^^pppppppqq%%^^^^^^^pppppppppp^^^^^^^^^^^^^^^^^^^^^",
"^^^^^^^^^==rrppppp^^^ppppppp00%%^^^^^JJpppppppppZll^^^^^^^^^^^^^^^^^^^",
"^^^^^^^^^==rrppppp^^^ppppppp00%%^^^^^JJpppppppppZll^^^^^^^^^^^^^^^^^^^",
"^^^^^^^^^$$==rppppppurrpppppee%%^^lllRRAApppppiiDjj^^^^^^^^^^^^^^^^^^^",
"^^^^^^^^^$$==rppppppurrpppppee%%^^lllRRAApppppiiDjj^^^^^^^^^^^^^^^^^^^",
"^^^^^^^^^^^$$=qqqqww9::ppppppp^^^^lll!!RRGHHFFPPlKKpp^^^^^^^^^^^^^^^^^",
"^^^^^^^^^^^^^%%%%%%%%^^^^^^^^^^^^^!!!!!~~~~~!!!!!EE77  ^^^^^^^^^^^^^^^",
"^^^^^^^^^^^^^%%%%%%%%^^^^^^^^^^^^^!!!!!~~~~~!!!!!EE77  ^^^^^^^^^^^^^^^",
"^^^^^^^^^^^^^^^^%%##^^^^^^^^      !!!~~~~~~~~~!!QIICC  ^^^^^^^^^^^^^^^",
"^^^^^^^^^^^^^^^^%%##^^^^^^^^      !!!~~~~~~~~~!!QIICC  ^^^^^^^^^^^^^^^",
"^^^^^^^^^^^^^^^^^^^^^^^^^^^^  llllh..!!~~~~~!!QQSuuVV^^^^^^^^^^^^^^^^^",
"^^^^^^^^^^^^^^^^^^^^^^^^^^^^  llllh..!!~~~~~!!QQSuuVV^^^^^^^^^^^^^^^^^",
"^^^^^^^^^^^^^^^^::ppp^^^^^^^  lllldnnTT~~~~~QQUUu88%%^^^^^^^^^^^^^^^^^",
"^^^^^^^^^^^^^^^^::aappp^^^^^ooccvvgNN55YYEWWLLww8%%++  ^^^^^^^^^^^^^^^",
"^^^^^^^^^^^^^^^^::aappp^^^^^ooccvvgNN55YYEWWLLww8%%++  ^^^^^^^^^^^^^^^",
"^^^^^^^^^^^^^^^^==wwqrrpppppppppyyX@@22==www88%%%11mm  ^^^^^^^^^^^^^^^",
"^^^^^^^^^^^^^^^^==wwqrrpppppppppyyX@@22==www88%%%11mm  ^^^^^^^^^^^^^^^",
"^^^^^^^^^^^^^^^^%%%%$==wwqqqqqww88<BBss22%%%%%%%1MMll  ^^^^^^^^^^^^^^^",
"^^^^^^^^^^^^^^^^%%%%$==wwqqqqqww88<BBss22%%%%%%%1MMll  ^^^^^^^^^^^^^^^",
"^^^^^^^^^^^^^^^^^^%%%%%%%%%%%%%%11Mll  ffzxx44336bbbb  ^^^^^^^^^^^^^^^",
"^^^^^^^^^^^^^^^^^^^^^%%%%%%%OO3366b  lllllbblllll  ^^^^^^^^^^^^^^^^^^^",
"^^^^^^^^^^^^^^^^^^^^^%%%%%%%OO3366b  lllllbblllll  ^^^^^^^^^^^^^^^^^^^",
"^^^^^^^^^^^^^^^^^^^^^^^^^^^^^^^^^^ llllllb  lllllll  ^^^^^^^^^^^^^^^^^",
"^^^^^^^^^^^^^^^^^^^^^^^^^^^^^^^^^^ llllllb  lllllll  ^^^^^^^^^^^^^^^^^",
"^^^^^^^^^^^^^^^^^^^^^^^^^^^^^^^^^^ llllllb^^^^lllllll  ^^^^^^^^^^^^^^^",
"^^^^^^^^^^^^^^^^^^^^^^^^^^^^^^^^^^ llllllb^^^^lllllll  ^^^^^^^^^^^^^^^",
"^^^^^^^^^^^^^^^^^^^^^^^^^^^^^^^^^^ llllbb^^^^^^^lllll  ^^^^^^^^^^^^^^^",
"^^^^^^^^^^^^^^^^^^^^^^^^^^^^^^^^^^^^^^^^^^^^^^^^^^^^^^^^^^^^^^^^^^^^^^",
"^^^^^^^^^^^^^^^^^^^^^^^^^^^^^^^^^^^^^^^^^^^^^^^^^^^^^^^^^^^^^^^^^^^^^^",
"^^^^^^^^^^^^^^^^^^^^^^^^^^^^^^^^^^^^^^^^^^^^^^^^^^^^^^^^^^^^^^^^^^^^^^",
"^^^^^^^^^^^^^^^^^^^^^^^^^^^^^^^^^^^^^^^^^^^^^^^^^^^^^^^^^^^^^^^^^^^^^^",
"^^^^^^^^^^^^^^^^^^^^^^^^^^^^^^^^^^^^^^^^^^^^^^^^^^^^^^^^^^^^^^^^^^^^^^",
"^^^^^^^^^^^^^^^^^^^^^^^^^^^^^^^^^^^^^^^^^^^^^^^^^^^^^^^^^^^^^^^^^^^^^^",
"^^^^^^^^^^^^^^^^^^^^^^^^^^^^^^^^^^^^^^^^^^^^^^^^^^^^^^^^^^^^^^^^^^^^^^"
};
