/* XPM */
static char *result[] = {
/* columns rows colors chars-per-pixel */
"70 70 13 1 ",
"  c #636917",
". c #656C17",
"X c #686F16",
"o c #72751B",
"O c #787B21",
"+ c #A2783C",
"@ c #7F8124",
"# c #7F8226",
"$ c #A2814F",
"% c #BD9842",
"& c #C6A740",
"* c #9CA8AD",
"= c #B3B0A9",
/* pixels */
"oooooooooooooooooooooooooooooooooooooooooooooooooooooooooooooooooooooo",
"oooooooooooooooooooooooooooooooooooooooooooooooooooooooooooooooooooooo",
"oooooooooooooooooooooooooooooooooooooooooooooooo#Ooooooooooooooooooooo",
"ooooooooooooooooooooo#ooooooooooooooooooooooooooo.oooooooooooooooooooo",
"ooooooooooooooooooo#O.oooooooooooooooooo#ooooooooooooooooooooooooooooo",
"ooooooooooooooooooooO.o#OoooooooooooO#oooooooooooooooooooooooooooooooo",
"oooooooooooooooooo#O.oOOooooooooooooo.O=oooooooooooooooooooooooooooooo",
"ooooooo=ooooooooooo.o..ooooooooooooooo.= ooooooooooooooooooooooooooooo",
"ooooooo= oooooooooooo.oooooooooooooooooooooooooooooooooooooOoooooooooo",
"ooooooo ooooooooooooooooooooooooooooooooooooooooooooooooooO.oooooooooo",
"ooooooooooooooooooooooooooooooOooooooooooooooooooooooooooO..oooooooooo",
"ooooooooooooooooooooooooooo#o*.oooooooooooooo=$==oooooooo.oooooooooooo",
"oooooooooooooooooooooooooooOO* oooooooooooooo= o=ooooooooooooooo#*o#oo",
"oooooooooooooooooooooooooooo.O.oooooooooooooo oooooooooooooooooo * =oo",
"oooooooooooooooooooooooooooooOooooooooooooooooooooooooooooooooooo o=oo",
"oooooooooooooooooooooooooooooooooooooooooooooooooooooooooooooooooooooo",
"oooooooooooooooooooooooooooooooooooooooooooooooooooooooooooooooooooooo",
"oooooooooooooooooooooooooooooooooooooooooooooooooooooooooooooooooooooo",
"oooooooooooooooooooooooooooooooooooooooooooooooooooooooooooooooooooooo",
"oooooooooooooooooooooooooooooooooooooooooooooooooooooooooooooooooooooo",
"oooooooooooooooooooooooooooooooooooooooooooooooooooooooooooooooooooooo",
"ooooooooooooooooooooooooooooooooooooooooooooooooOoo#oooooooooooooooooo",
"oooooooooooooooooooooooooooo#OoOooooooooooooooOOOO.ooooooooooooooooooo",
"oooooooooooooooooooooooooooooOoOo#ooooooooooooOO%O.ooooooooooooooooooo",
"ooooo#oooooooooooooooooooooo#.$oO.ooooooooooooo %o&ooooooooooooooooooo",
"oooOo.o*oooooooooooooooooooo=$.=ooooooooooooo&+&oo ooo#oo#oooooooooooo",
"oo#.Oo= *oooooooooooooooooooo = oooooooooooooo ooooooooOO.oooooooooooo",
"oooO. =o=oooooooooooooooooooooooooooooooooooooooooooooo.Oooooooooooooo",
"oooooo =$=oooooooooooooooooooooooooooooooooooooooooooooooooooooooooooo",
"ooo$oo$o ooooooooooooooooooooooooooooooooooooooooooooooooooooooooooooo",
"oooooo oooooooooooooooooooooooooooooOooOooooooooooooooooooooooooooOooo",
"oooooooooooooooooooo#oooooooooooooooo#O.oooooooooooooooooooooooooo.ooo",
"oooooooooooooooooooo.OoOoooooooooooooooooooooooooooooooooooooooooooooo",
"ooooooooooooooooooooo.OOoooooooooooooooooooooooooooooooooooooooooooooo",
"oooooooooooooooooooooo..oooooooooooooooooooooooooooooooooooooooooooooo",
"oooooooooooooooooooooooooooooooooooooooooooooooooooooooooooooooooooooo",
"oooooooooooooooooooooooooooooooooooooooooooooooooooooooooooooooooooooo",
"ooooooooooooooooooooooooOooooooooooooooooooooooooooooooooooooooooooooo",
"oooooooooooooooooooooooooOoooooooooooooooooooooooooooooooooooooooooooo",
"ooooooooooooooooooooooooo*OOoooooooooooooooooooooooooooooooooooo##o#oo",
"oooooooooo#ooOooooooooooo*Oooooooooooooooooooooooooooooooooooooo&&O.oo",
"oooooooooo.OOooooooooooooooooooooooooooooooooooooooooooooooooooo&&oooo",
"oooooooooo.O.ooooooooooooooooooooooooooooooo@ooooooooooooooooooo  oooo",
"ooooooooooooooooooooooooooooooo#oooooooooo@oXO@ooooooooooooooooooooooo",
"oooooooooooooooooooooooooooooooOooooooooooXOoOO@oooooooooooooooooooooo",
"ooooooooooooooooooooooooooooooooOooooooooooX=$Xooooooooooooooooooooooo",
"ooo%ooooooooooooooooooooooooooooooooooooooo=o oooooooooooooooooooooooo",
"ooo+%o&ooooooooooooo#ooo#oooooooooooooooooo=oooooooooooooooooooooooooo",
"ooo o& ooooooooooooO#OOOoooooooooooooooooooooooooooooooooooooooooooooo",
"ooooooooooooooooooooO$*.o$oooooooooooo@ooooooooooooooooooooooooooooooo",
"ooooooooooooooooooooo =$ooooooooooooooXOoooooooooooooooooooooooooooooo",
"oooooooooooooooooooooo==oooooooooooooooXoooooooooooooooooooooooooooooo",
"oooooooooooooooooooooooooooooooooooooooooooooooooooooooooooooooooooooo",
"oooooooooooooooooooooooooooooooooooooooooooooooooooooooooooooooooooooo",
"ooooooooooooooooooooooooooooooooooooooooooooooooooOooooooooooooooooooo",
"ooooooooooooooooooOOoooooooooooooooooooooooooooooOXooooooooooooooooooo",
"oooOooooooooooooooX@oooooooooooooooooooooooooooooOoooooooooooooooooooo",
"ooOXoooooooooooooooXO@oooooooooooooooooooooooooooooooooooooooooooooooo",
"ooXoooooooooooooooooX+&ooooooOo@oooooooooooooooooooooooooooooooooooooo",
"ooooooooooooooooooooo o+ooo@OoOXooooooooooooooooooooooooooooooooo@oooo",
"oooooooooooooOoooooooooooooo&+XOooooooooooooooooooooooooooooooooOXO@oo",
"oooooooooooooOOooooooooooooo &XXoooooooooooooooooooooooooooooooOoXOXoo",
"oooooooooooo==Xoooooooooo@oooo%+ooooooo@O@@ooooooooooooooooooooX$$XOoo",
"o@ooo@oooooo ooooooooooooXOooo& oooooo@OX**ooooooooooooooooo@Ooo  *ooo",
"O@OOXoooooooooooooooooooooooo& oooooooo$=  oooooooooooooooooXO$=oo ooo",
"oO=OXo@o@oooooooooooooooooooo ooooooooo= ooooooooooooooooooooX= oooooo",
"o =oooOXoooooooooo@@ooOooooooooooooooooooooooooooooooooooooooooooooooo",
"ooooo*$ooooooooooooXO+ooooooooOoO@oooooooooooooooooooooooooooooooooooo",
"oooooo o*oooooooooooXooooooooo@OXooooooooooooooooooooooooooooooooooooo",
"oooooooooooooooooooooooooooooooooooooooooooooooooooooooooooooooooooooo"
};
