/* XPM */
static char *result[] = {
/* columns rows colors chars-per-pixel */
"70 70 91 1 ",
"  c #4F2913",
". c #502A13",
"X c #513315",
"o c #563B14",
"O c #583E14",
"+ c #51341A",
"@ c #523B23",
"# c #4E510F",
"$ c #494E11",
"% c #544413",
"& c #5B4415",
"* c #564C13",
"= c #5D4A15",
"- c #53461C",
"; c #5F4318",
": c #524D19",
"> c #5E4A18",
", c #4E5312",
"< c #525512",
"1 c #5A5313",
"2 c #565913",
"3 c #5A5C13",
"4 c #624D16",
"5 c #634D19",
"6 c #645317",
"7 c #655C15",
"8 c #6A5D15",
"9 c #655219",
"0 c #69541B",
"q c #66581A",
"w c #6A5A1B",
"e c #5E6115",
"r c #636515",
"t c #6C6416",
"y c #666915",
"u c #6A6C16",
"i c #666718",
"p c #6D6519",
"a c #676918",
"s c #6C6E19",
"d c #716517",
"f c #706916",
"g c #716418",
"h c #736A19",
"j c #6E7017",
"k c #6F7019",
"l c #717117",
"z c #74741C",
"x c #78761F",
"c c #77781E",
"v c #79791F",
"b c #5A4026",
"n c #55412B",
"m c #564A2F",
"M c #5E4F2A",
"N c #57543C",
"B c #59553D",
"V c #767620",
"C c #797720",
"Z c #7C7B22",
"A c #7F7C2A",
"S c #5B5746",
"D c #5E5A45",
"F c #5C5748",
"G c #5E594A",
"H c #615D4A",
"J c #656045",
"K c #67634A",
"L c #666050",
"P c #6A6557",
"I c #69665A",
"U c #757165",
"Y c #787366",
"T c #7E7A6F",
"R c #7F7C72",
"E c #817F24",
"W c #817E2A",
"Q c #807C6F",
"! c #828125",
"~ c #85822C",
"^ c #89852D",
"/ c #8C882E",
"( c #868231",
") c #8B8632",
"_ c #8D8934",
"` c #908B36",
"' c #848074",
"] c #878279",
"[ c #888479",
"{ c #8E8B84",
"} c None",
/* pixels */
"}}}}}}}}}}}}}}}}}}}}}}}}}}}}}}}}}}}}}}}}}}}}}}}}}}}}}}}}}}}}}}}}}}}}}}",
"}}}}}}}}}}}}}}}}}}}}}}}}}}}}}}}}}}}}}}}}}}}}}}}}}}}}}}}}}}}}}}}}}}}}}}",
"}}}}}}}}}}}}}}}}}}}}}}}}}}}}}}}}}}}}}}}}}}}}}}}}}}}}}}}}}}}}}}}}}}}}}}",
"}}}}}}}}}}}}}}}}}}}}}}}}}}}}}}}}}}}}}}}}}}}}}}}}}}}}}}}}}}}}}}}}}}}}}}",
"}}}}}}}}}}}}}}}}}}}}}}}}}}}}}}}}}}}}}}}}}~}}}}}}}}}}}}}}}}}}}}}}}}}}}}",
"}}}}}}}}}}}}}}}}}}}^q}}}}}}}}}}}}}}}}}909Z99}}}}}}}}}}}}}}}}}}}}}}}}}}",
"}}}}}}}}}}}}}}}}}EZE)9}>}}}}}}}}}}}}}}))~j~)w5Z>}}}}}}}}}}}}}}}}}}}}}}",
"}}}}}}}}}}}}}}}}}Z!Z^^9~}}}}}}}}}}}}}}0)_A~96ZZ*}}}}}}}}}}}}}}}}}}}}}}",
"}}}}}}}}}}}}}}}9^)))!pZjVV}}}}}}}}5}Z}z)~_ZWajAW9}}}}}}}}}}}}}}}}}}}}}",
"}}}}}}}}}}}}}}}}9)Z^!!^^VV}}}}}}}5W0v~zj)zk_)VVW9})}}}}}}}}}}}}}}}}}}}",
"}}}}}}}}}}}}}}w}k`_)_)~^rs~k900WVV`V~!s_Z__rujj2sZ)0}}}}}}}}}}}}}}}}}}",
"}}}}}}}}}}}}}q!!a`_k!E^cZu0sC^^0V```^^`ZZaeeuue<ssk)`}}}}}}}}}}}}}}}}}",
"}}}}}}}}}}}}}}ElyeeuuEcc~Z^^qv)/)v/^/_hZ_ZraZv<jeeZ)00}}}}}}}}}}}}}}}}",
"}}}}}}}}}}}}x~^EjEjjy^vt9)0_!!_/hv/~`cspaE~CvAWykW3)pA)}}}}}}}}}}}}}}}",
"}}}}}}}}}}}}=~~cEEv~vj~9^ZZ/`!//hv~wz//lE~WAWuyjara(pi5}}}}}}}}}}}}}}}",
"}}}}}}}}}}}}}=et/vvtWZhE)/^^`/`!!/^v0!/EZ~u3<Gu<sjuusskk}}}}}}}}}}}}}}",
"}}}}}}}}}}ks>euc///rrj^//_/h``/!!~lvv0WW),#y<o##ssu(uC~>}}}}}}}}}}}}}}",
"}}}}}}}}}}r~~vy1~%#l#l))vvzzz!l!/!!E~~l)^<#<:<,#3r~x(xe}}}}}}}}}}}}}}}",
"}}}}}}}}}l^~Zvr1H<ur55jlZZrizEE/!`_hw095Zc22F2<yrr7<vx3}}}}}}}}}}}}}}}",
"}}}}}}}}9z~ZZZujul6z))vE!rizcE!zvv/ch0kkZ222ry22rr<<xve&3}}}}}}}}}}}}}",
"}}}}}}}}}}~^u^^vx6))ACaaaer77!`h/~zuZZeaZZy2rrxVWx23uk2sko}}}}}}}}}}}}",
"}}}}}}}}5~Z8jzsv9())E3eC33zrlc__hhCr71aaeE;yxrzF:W,3sjyu2e}}}}}}}}}}}}",
"}}}}}}}}^^6ye31))Z))kkkCkehs!llhZvavZ2ejjzkyAAzS33ryyyyyx%}}}}}}}}}}}}",
"}}}}}}}}}9acr3r9sApp!!kjeeyr222HZE!vz2kkjZkyr7AAmmuuycvvC}r}}}}}}}}}}}",
"}}}}}}qv5cccxsvsj))_Z/W!Ety1er<Krx!E!h~~vEcArz-$Snzcv7vv<2r&}}}}}}}}}}",
"}}}}}6uvssEZsEvu)_z_ZC3~irrar2<6xx^~EE^2sZEZ&z,$@ezry,C,<23&o}}}}}}}}}",
"}}}}}zus!uh~~Zs3Vzk_/^pe3rey322cch~l!~22uEAzh*<@@ezc<<:<h23vi&}}}}}}}}",
"}}}}}})9u!j!22Lrr2szlEZkpupefcE~jjzz~~a2>*yurrrV&#z*12<zapZ~25a}}}}}}}",
"}}}}}53E!^(E4zl577k1VkZZ5peercc!!fEZjsa2B,,2eeeV##2<222assv12sa9}}}}}}",
"}}}}5s3/4r^)ejV5seeeZZpZeB>3euj!!!jZzlH>Hzz3eyeZ&22e<2lzuruvZ3sZ5}}}}}",
"}}}}}}aa32;L<6Vss2aaZZp<ezx3Zu!~!!s)vu=H,zzkkeeee223zs2tlrEEslu!5}}}}}",
"}}}}}}}}er17zuyZZ2kaks22creuj!!!2xll11>lzuaa,!!!yjj31rxcupZE!vvs5}}}}}",
"}}}}}}}srsZ39(AWakjaMs22zaZps)E!6c1#2<GzVaVjurWWrrn333x<vvj<1vvE~}}}}}",
"}}}}}}}>vsvj2AAZyCV2H<22aVVCC)6E!,<#zzGysrCVtW%eV<Gn#32#nZ##,jE~}}}}}}",
"}}}}}}4C~~Zz4()A((VtH5y,rr(Cxs4<33<<,Du~~VVaexA&ZyxyyuunG1<2<(}}}}}}}}",
"}}}}}}5ZCZ^1((7CZatsssurxeWr(1==32<<=NuWWZZ~c~~ZryxkyssG2<2<<~Z}}}}}}}",
"}}}}}}}4~~122;rr8sZEZVrVAyrsus,>2232zzuVZureuyyc~,,hyeeurAAAAC(A}}}}}}",
"}}}}}}}}u&3r23r33Z)(Z(VWazzsrs,uv<ssuyuZc#uyy*2v&$s8yyyrzZ%3A}&}}}}}}}",
"}}}}}}}}}}}}*CV33kss((pp%uaeea3WZp~~y~Zrr12,y2vCaO12zsyxx7%r%}}}}}}}}}",
"}}}}}}}}}}}&zVs3<ray~>=,,u,aa3rrZZ~V~Zrery2223e3u&<1csy12o}}}}}}}}}}}}",
"}}}}}}}}}}}};u<2rrapur4132;&,,r~~ZEx^Z~rtu2,33rr&$2uczc<<o}}}}}}}}}}}}",
"}}}}}}}}}}}xz~ksr(fZ~xH132>22uyuZ~izZ~^~~1xx<W3t42$2ytxx}}}}}}}}}}}}}}",
"}}}}}}}}}}}}V~pzZ^ZZW3L4<2H22,uZ~dauZ^kuyuzu2^~3&2,uZZvC}}}}}}}}}}}}}}",
"}}}}}}}}}}>~~~~Z)kZ))~ZDvvyy2kla2uZCrykvvspE!s~~yrssytpA}}}}}}}}}}}}}}",
"}}}}}}}}}}}>z~VC)ks^ZW^ZZZy<2sl<22vyscjvZsp~!Z~~ftyy>y}}}}}}}}}}}}}}}}",
"}}}}}}}}}}}}}Z^g~32<^ZsW~zcru22<puruzc=uuyr2Z&$tllzz1}}}}}}}}}}}}}}}}}",
"}}}}}}}}}}}&au~~Ze3e13spuyu~Wu3su-%z#1,#ylx2r8lth8zZ>}}}}}}}}}}}}}}}}}",
"}}}}}}}}}}}}yu>wZru31yuu1ZxWvx<3%N$&,,1yyc,2&CxlZZ&Z}}}}}}}}}}}}}}}}}}",
"}}}}}}}}}}}}}}er}}>}>VxZZC~2~3e1NN1122}&l$ee&}ZC>>}}}}}}}}}}}}}}}}}}}}",
"}}}}}}}}}}}}}}}}}}}};W;EC;&O13}%NN31,,&}OHDO}}}&}}}}}}}}}}}}}}}}}}}}}}",
"}}}}}}}}}}}}}}}}}}}}{{OX22BBr1}&Noe,ee}}III}}}}}}}}}}}}}}}}}}}}}}}}}}}",
"}}}}}}}}}}}}}}}}}}oo+{OrorOBo}}oNo}}oo}}UII}}}}}}}}}}}}}}}}}}}}}}}}}}}",
"}}}}}}}}}}}}}}}}}}ooooo}}roB%}}NN}}}}}}}YPP}}}}}}}}}}}}}}}}}}}}}}}}}}}",
"}}}}}}}}}}}}}}}}}}}ZV59}}}}HH}%SN}}}}}}}Q'Y}}}}}}}}}}}}}}}}}}}}}}}}}}}",
"}}}}}}}}}}}}}}}}}}}}}}}}}}}IHHHH&}}}}}}}[[[}}}}}}}}}}}}}}}}}}}}}}}}}}}",
"}}}}}}}}}}}}}}}}}}}}}}}}}}}&IIII}}}}}}}}]R[}}}}}}}}}}}}}}}}}}}}}}}}}}}",
"}}}}}}}}}}}}}}}}}}}}}}}}}}};UUI&}}}}}}}}[{[}}}}}}}}}}}}}}}}}}}}}}}}}}}",
"}}}}}}}}}}}}}}}}}}}}}}}}}}}>TRU*}}}}}}}}[{[@}}}}}}}}}}}}}}}}}}}}}}}}}}",
"}}}}}}}}}}}}}}}}}}}}}}}}}}}}Q[T}}}}}}}}b {{+}}}}}}}}}}}}}}}}}}}}}}}}}}",
"}}}}}}}}}}}}}}}}}}}}}}}}}}}}Q{]}}}}}}}}X  {+}}}}}}}}}}}}}}}}}}}}}}}}}}",
"}}}}}}}}}}}}}}}}}}}}}}}}}}}}[{]}}}}}}} >ZZ>&}}}}}}}}}}}}}}}}}}}}}}}}}}",
"}}}}}}}}}}}}}}}}}}}}}}}}}}}}[{]}}}}}}}}}}}}}}}}}}}}}}}}}}}}}}}}}}}}}}}",
"}}}}}}}}}}}}}}}}}}}}}}}}}}};P{[}}}}}}}}}}}}}}}}}}}}}}}}}}}}}}}}}}}}}}}",
"}}}}}}}}}}}}}}}}}}}}}}}}}}}o{{[&}}}}}}}}}}}}}}}}}}}}}}}}}}}}}}}}}}}}}}",
"}}}}}}}}}}}}}}}}}}}}}}}}}}}o){I^o}}}}}}}}}}}}}}}}}}}}}}}}}}}}}}}}}}}}}",
"}}}}}}}}}}}}}}}}}}}}}}}}}}ooZ^oZ}}}}}}}}}}}}}}}}}}}}}}}}}}}}}}}}}}}}}}",
"}}}}}}}}}}}}}}}}}}}}}}}}}}}CVZ>i}}}}}}}}}}}}}}}}}}}}}}}}}}}}}}}}}}}}}}",
"}}}}}}}}}}}}}}}}}}}}}}}}}}}}}}}}}}}}}}}}}}}}}}}}}}}}}}}}}}}}}}}}}}}}}}",
"}}}}}}}}}}}}}}}}}}}}}}}}}}}}}}}}}}}}}}}}}}}}}}}}}}}}}}}}}}}}}}}}}}}}}}",
"}}}}}}}}}}}}}}}}}}}}}}}}}}}}}}}}}}}}}}}}}}}}}}}}}}}}}}}}}}}}}}}}}}}}}}"
};
