/* XPM */
static char *result[] = {
/* columns rows colors chars-per-pixel */
"70 70 48 1 ",
"  c #4F2A13",
". c #512F19",
"X c #4F311A",
"o c #54321C",
"O c #553720",
"+ c #553923",
"@ c #5A3B25",
"# c #5C422C",
"$ c #5F4632",
"% c #5D4935",
"& c #534A3D",
"* c #5F4C38",
"= c #604732",
"- c #604E3A",
"; c #5F5648",
": c #615749",
"> c #635A4B",
", c #685E4E",
"< c #665E50",
"1 c #695F50",
"2 c #676051",
"3 c #6B6354",
"4 c #6E6857",
"5 c #6E6758",
"6 c #6F6958",
"7 c #746E5E",
"8 c #75705F",
"9 c #766F60",
"0 c #767060",
"q c #7A7464",
"w c #7C7866",
"e c #7D7668",
"r c #817C6E",
"t c #837E70",
"y c #84806F",
"u c #868271",
"i c #898576",
"p c #8D8877",
"a c #8B8778",
"s c #8D8979",
"d c #928D7D",
"f c #8F8C80",
"g c #918D82",
"h c #959185",
"j c #96948A",
"k c #9A968E",
"l c #9B988F",
"z c None",
/* pixels */
"zzzzzzzzzzzzzzzzzzzzzzzzzzzzzzzzzzzzzzzzzzzzzzzzzzzzzzzzzzzzzzzzzzzzzz",
"zzzzzzzzzzzzzzzzzzzzzzzzzzzzzzzzzzzzzzzzzzzzzzzzzzzzzzzzzzzzzzzzzzzzzz",
"zzzzzzzzzzzzzzzzzzzzzzzzzzzzzzzzzzzzzzzzzzzzzzzzzzzzzzzzzzzzzzzzzzzzzz",
"zzzzzzzzzzzzzzzzzzzzzzzzzzzzzzzzzzzzzzzzzzzzzzzzzzzzzzzzzzzzzzzzzzzzzz",
"zzzzzzzzzzzzzzzzzzzzzzzzzzzzzzzzzzzzzzzzzzzzzzzzzzzzzzzzzzzzzzzzzzzzzz",
"zzzzzzzzzzzzzzzzzzzzzzzzzzzzzzzzzzzzzzzzzzzzzzzzzzzzzzzzzzzzzzzzzzzzzz",
"zzzzzzzzzzzzzzzzzzzzzzzzzzzzzzzzzzzzzzzzzzzzzzzzzzzzzzzzzzzzzzzzzzzzzz",
"zzzzzzzzzzzzzzzzzzzzzzzzzzzzzzzzzzzzzzzzzzzzzzzzzzzzzzzzzzzzzzzzzzzzzz",
"zzzzzzzzzzzzzzzzzzzzzzzzzzzzzzzzzzzzzzzzzzzzzzzzzzzzzzzzzzzzzzzzzzzzzz",
"zzzzzzzzzzzzzzzzzzzzzzzzzzzzzzzzzzzzzzzzzzzzzzzzzzzzzzzzzzzzzzzzzzzzzz",
"zzzzzzzzzzzzzzzzzzzzzzzzzzzzzzzzzzzzzzzzzzzzzzzzzzzzzzzzzzzzzzzzzzzzzz",
"zzzzzzzzzzzzzzzzzzzzzzzzzzzzzzzzzzzzzzzzzzzzzzzzzzzzzzzzzzzzzzzzzzzzzz",
"zzzzzzzzzzzzzzzzzzzzzzzzzzzzzzzzzzzzzzzzzzzzzzzzzzzzzzzzzzzzzzzzzzzzzz",
"zzzzzzzzzzzzzzzzzzzzzzzzzzzzzzzzzzzzzzzzzzzzzzzzzzzzzzzzzzzzzzzzzzzzzz",
"zzzzzzzzzzzzzzzzzzzzzzzzzzzzzzzz$$$%=$$$zzzzzzzzzzzzzzzzzzzzzzzzzzzzzz",
"zzzzzzzzzzzzzzzzzzzz=$$$=$$$====rretrrrr==zzzzzzzzzzzzzzzzzzzzzzzzzzzz",
"zzzzzzzzzzzzzzzzzzz=878rttttttttieieererrr=zzzzzzzzzzzzzzzzzzzzzzzzzzz",
"zzzzzzzzzzzzzzzzz##8878tttttttttttettrrr113=zzzzzzzzzzzzzzzzzzzzzzzzzz",
"zzzzzzzzzzzzzzzzz$#8778ttttttttteteeettr311=zzzzzzzzzzzzzzzzzzzzzzzzzz",
"zzzzzzzzzzzzzzzz#88777tttttttttttttter11335=zzzzzzzzzzzzzzzzzzzzzzzzzz",
"zzzzzzzzzzzzzzz#78878tttsssttttterrr:;:13333=zzzzzzzzzzzzzzzzzzzzzzzzz",
"zzzzzzzzzzzzzz#778879ttssdssuuuuttrr::::3553=zzzzzzzzzzzzzzzzzzzzzzzzz",
"zzzzzzzzzzzzzz#787779ttpsaassiiuirrr::::15355=zzzzzzzzzzzzzzzzzzzzzzzz",
"zzzzzzzzzzzzzz#7777977hsassssssitrrreeeeee515==@$$zzzzzzzzzzzzzzzzzzzz",
"zzzzzzzzzzzzz#8877r5999hhhhassssfffteeee6rr1rr,req=zzzzzzzzzzzzzzzzzzz",
"zzzzzzzzzzzz#rr888779q13331hssssaiaafeeerrrrrrrrqeq=zzzzzzzzzzzzzzzzzz",
"zzzzzzzzzzz#rryyr87r9113<551gsaaaaaasstr6rrr1rrreqqq==@==$zzzzzzzzzzzz",
"zzzzzzzzzz#rryewrrtt335131qq9jjjafafssssrrrrrrr,eeqeqerreq=zzzzzzzzzzz",
"zzzzzzzzzz#rrryrrdgdstiafa99qqq9hssssssstpitrrqrtiittiuuqqq$zzzzzzzzzz",
"zzzzzzzzzz#yryrrtdggssaiaaq9099qhsssssssiiiitqrrituuttutqeq=zzzzzzzzzz",
"zzzzzzzzz#rrrrrydggssisaaaaqq9q9qghsssssiiiitiiuuuupppiaaaqq$zzzzzzzzz",
"zzzzzzzz#ryryyysgddtisaaaaaaaq9q7rqsdssdiptiiiupupppsssaaasqq$zzzzzzzz",
"zzzzzz@$000035gffffaaaaaaaaaaafitpisssdddddpppuppppppdppppa11<@zzzzzzz",
"zzzzzz$@q04346gggaaaaaaaaaaaaaiitpdddddddddddtppdpppppppppi1<<$zzzzzzz",
"zzzzzz##q54446ffaaaafiaasaaafiiipsdddddddddddddddpdppppppd,1<<@zzzzzzz",
"zzzzzz##8346667gaaaiaaaaasiiiiiiddddddddddddddddpdpddpppd:,1<<<$#zzzzz",
"zzzzzz%%==677677gaaaiiaasiiiiiiidddddhddddddddddddsssspd>>:;<<><>@zzzz",
"zzzzz%iipi$767660fhaifaaiiiiiiiihddddddddddddddddddpssk,,::;;&&&&+zzzz",
"zzzz@iiuiiu%7666780fgggggjiiiiiihdddddddddddddddpddklk,:>:::;&&&&Ozzzz",
"zzz@iiuiuiii*677680;;>>>;>ggiiiidhdddhdddddddkllkhh,,,,:,:;;;&&&&Ozzzz",
"zzz@7juuiiiii;770;>>>>>;;>;3jjjjhhhdddddhkdkk877888,>,,,>>>:&&&&&Xzzzz",
"zzz@7hiiitiie;779>;<>;;>>><3jjjjhhhdddhdkdkdk877688,,>,>,-::&&&&;Xzzzz",
"zzz+70jjfiiiti&0;>;;<;<;>;233334hkhdddddkddl778788,,,,,,,,>>&&&.ozzzzz",
"zzz@0996ffiiiie&;><;;;<;:233353488klhhhhdld8777888@@@O+#o,>>&&.zzzzzzz",
"zzz+003335ggffff &;;;><3<33325338888uuuupp,313887Or8w8432@>>&ozzzzzzzz",
"zzz+036355533;;;X&&;>2<<<323333378877uuu,,1111,8@r8r8w8422@:.zzzzzzzzz",
"zzzz+3365355;;;;X;&&22<2<1233437777787u,,3,331,@rrr4w88q32;ozzzzzzzzzz",
"zzzzzOXXX55;;<;; &;;<22213322667777777u,,,,31##r44rr8wqqq2&ozzzzzzzzzz",
"zzzzzzzzzo4:>;>ozoo2222222236666596999,,1,,3@yuyyr8rww8wr&&Xzzzzzzzzzz",
"zzzzzzzzzzooooozzzzoo22222176666559959,,,,1@uyyryyyywwwu&&&Xzzzzzzzzzz",
"zzzzzzzzzzzzzzzzzzzzzoo222265566665999,,,,@dyyriyyyyuyd>&&&Xzzzzzzzzzz",
"zzzzzzzzzzzzzzzzzzzzzzzoooo5555555553>,>@@gdryutyyyypp>>2&&;ozzzzzzzzz",
"zzzzzzzzzzzzzzzzzzzzzzzzzzzooooo35335,,,@@77ggggyppd,,>>;;&&ozzzzzzzzz",
"zzzzzzzzzzzzzzzzzzzzzzzzzzzoo.oo35633,,,@@77ggggpppd>>>>>;&;Xzzzzzzzzz",
"zzzzzzzzzzzzzzzzzzzzzzzzzzzzzzzzoooo3,,,@O777777dpd,>>>,;<&&ozzzzzzzzz",
"zzzzzzzzzzzzzzzzzzzzzzzzzzzzzzzzzzzzoooo@@7777774d,,>>>-;;o zzzzzzzzzz",
"zzzzzzzzzzzzzzzzzzzzzzzzzzzzzzzzzzzzzzzz@@7777744>:::>:>. zzzzzzzzzzzz",
"zzzzzzzzzzzzzzzzzzzzzzzzzzzzzzzzzzzzzzzz  7777446>::>>  zzzzzzzzzzzzzz",
"zzzzzzzzzzzzzzzzzzzzzzzzzzzzzzzzzzzzzzzzzz 777334::   zzzzzzzzzzzzzzzz",
"zzzzzzzzzzzzzzzzzzzzzzzzzzzzzzzzzzzzzzzzzzz        zzzzzzzzzzzzzzzzzzz",
"zzzzzzzzzzzzzzzzzzzzzzzzzzzzzzzzzzzzzzzzzzzzzzzzzzzzzzzzzzzzzzzzzzzzzz",
"zzzzzzzzzzzzzzzzzzzzzzzzzzzzzzzzzzzzzzzzzzzzzzzzzzzzzzzzzzzzzzzzzzzzzz",
"zzzzzzzzzzzzzzzzzzzzzzzzzzzzzzzzzzzzzzzzzzzzzzzzzzzzzzzzzzzzzzzzzzzzzz",
"zzzzzzzzzzzzzzzzzzzzzzzzzzzzzzzzzzzzzzzzzzzzzzzzzzzzzzzzzzzzzzzzzzzzzz",
"zzzzzzzzzzzzzzzzzzzzzzzzzzzzzzzzzzzzzzzzzzzzzzzzzzzzzzzzzzzzzzzzzzzzzz",
"zzzzzzzzzzzzzzzzzzzzzzzzzzzzzzzzzzzzzzzzzzzzzzzzzzzzzzzzzzzzzzzzzzzzzz",
"zzzzzzzzzzzzzzzzzzzzzzzzzzzzzzzzzzzzzzzzzzzzzzzzzzzzzzzzzzzzzzzzzzzzzz",
"zzzzzzzzzzzzzzzzzzzzzzzzzzzzzzzzzzzzzzzzzzzzzzzzzzzzzzzzzzzzzzzzzzzzzz",
"zzzzzzzzzzzzzzzzzzzzzzzzzzzzzzzzzzzzzzzzzzzzzzzzzzzzzzzzzzzzzzzzzzzzzz",
"zzzzzzzzzzzzzzzzzzzzzzzzzzzzzzzzzzzzzzzzzzzzzzzzzzzzzzzzzzzzzzzzzzzzzz"
};
