/* XPM */
static char *result[] = {
/* columns rows colors chars-per-pixel */
"70 70 75 1 ",
"  c #553714",
". c #563D14",
"X c #583E14",
"o c #4A4F12",
"O c #544613",
"+ c #5C4415",
"@ c #574A13",
"# c #5D4A15",
"$ c #56461F",
"% c #5E4618",
"& c #4E5313",
"* c #525513",
"= c #5B5313",
"- c #565913",
"; c #5A5D14",
": c #604717",
"> c #604C15",
", c #634C19",
"< c #635415",
"1 c #655B15",
"2 c #6B5C15",
"3 c #66511A",
"4 c #6A551B",
"5 c #6A5C1D",
"6 c #5E6115",
"7 c #636516",
"8 c #6C6516",
"9 c #666916",
"0 c #6A6C16",
"q c #666618",
"w c #6F6518",
"e c #676918",
"r c #6C6E19",
"t c #716517",
"y c #706916",
"u c #716518",
"i c #736B19",
"p c #6E7017",
"a c #6F7019",
"s c #707117",
"d c #74741C",
"f c #78731E",
"g c #77781D",
"h c #79791F",
"j c #5E4F2A",
"k c #57543C",
"l c #59563D",
"z c #5E5A3E",
"x c #695420",
"c c #767621",
"v c #787720",
"b c #777820",
"n c #7C7B22",
"m c #7F7D29",
"M c #5E5A43",
"N c #5F5B48",
"B c #615D41",
"V c #615D4A",
"C c #66614B",
"Z c #6D6457",
"A c #69665B",
"S c #747065",
"D c #7E7A6F",
"F c #807E24",
"G c #837F2B",
"H c #838125",
"J c #86822B",
"K c #89852E",
"L c #868231",
"P c #8A8532",
"I c #8E8932",
"U c #918B35",
"Y c #868279",
"T c #8E8A84",
"R c None",
/* pixels */
"RRRRRRRRRRRRRRRRRRRRRRRRRRRRRRRRRRRRRRRRRRRRRRRRRRRRRRRRRRRRRRRRRRRRRR",
"RRRRRRRRRRRRRRRRRRRRRRRRRRRRRRRRRRKKRRRRRRRRRRRRRRRRRRRRRRRRRRRRRRRRRR",
"RRRRRRRRRRRRRRRRRRRRRRRRRRRRRRKKR4KL4KRRRRRRRRRRRRRRRRRRRRRRRRRRRRRRRR",
"RRRRRRRRRRRRRRRRRRRRRRRRRRRRRRKKPnggII4RRRRRRRRRRRRRRRRRRRRRRRRRRRRRRR",
"RRRRRRRRRRRRRRRRRRRRRRRRRRRR4R2PIKHKHU5hRRRRRRRRRRRRRRRRRRRRRRRRRRRRRR",
"RRRRRRRRRRRRRRRRRRRRRRRRRRRKKnFKIHHIKHihR4RRRRRRRRRRRRRRRRRRRRRRRRRRRR",
"RRRRRRRRRRRRRRRRRRRRRRRRRRR4PIJJIIHUKHJKHnnRRRRRRRRRRRRRRRRRRRRRRRRRRR",
"RRRRRRRRRRRRRRRRRRRRRRRRRR4PKIJJiUUUUJHKrnnRRRRRRRRRRRRRRRRRRRRRRRRRRR",
"RRRRRRRRRRRRRRRRRRRRRRRRRLPIrIIsIUUsKsHHssdJ4RRRRRRRRRRRRRRRRRRRRRRRRR",
"RRRRRRRRRRRRRRRRRRRRRRRRRPIehhdeggFssKHHHHHJ,RRRRRRRRRRRRRRRRRRRRRRRRR",
"RRRRRRRRRRRRRRRRRRRRRRR,,,prhhqegHFFJHhIIiisR,,RRRRRRRRRRRRRRRRRRRRRRR",
"RRRRRRRRRRRRRRRRRRRR3,RPPn9HH97gsHFHKdhhIgdsxdrRRRRRRRRRRRRRRRRRRRRRRR",
"RRRRRRRRRRRRRRRRRRRRLP,%PbeHm77esHJJsdJJgsnh76r,n%RRRRRRRRRRRRRRRRRRRR",
"RRRRRRRRRRRRRRRRRRRR3PPGn;9nr;6712gUUiKJg01b7eenm,RRRRRRRRRRRRRRRRRRRR",
"RRRRRRRRRRRRRRRRR3P3PPHH;;ch;;ss1HssIyghh8116qe76rdRRRRRRRRRRRRRRRRRRR",
"RRRRRRRRRRRRRRRRRPPPmP8rprnps6s8HHssyFhhqhg--7rrradRRRRRRRRRRRRRRRRRRR",
"RRRRRRRRRRRRRRRRR3rnnwwJFIri6697;;*-4FFdHggdsappnn+RRRRRRRRRRRRRRRRRRR",
"RRRRRRRRRRRRRRRR3ramHIJHPsHH699;-67*3<6dHFHinnpnn%RRRRRRRRRRRRRRRRRRRR",
"RRRRRRRRRRRRRRRR,rIPPPmnnFHHn7qqq;6-C1ggdFFFKKJrnh:RRRRRRRRRRRRRRRRRRR",
"RRRRRRRRRRRRRRRRR,cIaUPnPn7;q77qq7;-CdgJJJiiJJ--rGFRdsRRRRRRRRRRRRRRRR",
"RRRRRRRRRRRRRRRR,6cccaPcKK87686-**;gCsyJJiJJrr*00F0#psR%%RRRRRRRRRRRRR",
"RRRRRRRRRRRRRRRR,6q-aadaFFar8806*sgFHHssggaJG0;+l*99777gc+RRRRRRRRRRRR",
"RRRRRRRRRRRRRRRRR,75-a;dssnp38667sgdHHrpFnpp00;l**--7777cRRRRRRRRRRRRR",
"RRRRRRRRRRRRRRRR,R1666=rnFhn;M6666;rHHHHFFadz#-V&s=-;-7ccRRRRRRRRRRRRR",
"RRRRRRRRRRRRRRRgcrr;;ernn8*n;#g;-HrHHHHHpKhs;VV+dd*a-777c+RRRRRRRRRRRR",
"RRRRRRRRRRRRRRR,cLrr-eeppq*-;ccdnF9HHJs0rdLr--V**99pp-76+RRRRRRRRRRRRR",
"RRRRRRRRRRRRRR30Pnn-rearp#-db76prFFHJHsgss==*+dd00r9&&GG+RRRRRRRRRRRRR",
"RRRRRRRRRRRRR3LLmmq*aa,jr&--arbnwrPnHp<s=&--&Vddr0g099GG+RRRRRRRRRRRRR",
"RRRRRRRRRRRRRRmmmm77ba-V**-*pbbbnHP<HH*6&&-daN7erhgv1bGRRRRRRRRRRRRRRR",
"RRRRRRRRRRRRRR,LPmPPbheV#-&qq6LLchr>>-*;6&-se7rJ7hnq77g+RRRRRRRRRRRRRR",
"RRRRRRRRRRRRRLLPPhnPn8rNre9666LLL==>#;;;*&&MreGGnnncgcGGRRRRRRRRRRRRRR",
"RRRRRRRRRRRRRLLn1nn&88rpeq9dg996LG&*B;;**-&dkrJ22n7GrbG+R+RRRRRRRRRRRR",
"RRRRRRRRRRRRRR%1772*rnrncc9mm77rrrr*V;;;;-dg9rnn90779999FGRRRRRRRRRRRR",
"RRRRRRRRRRRRRRR+7;;rnLmnLLgmrddrr7e&0g-or8rrGrnn&9&99==*g+RRRRRRRRRRRR",
"RRRRRRRRRRRRRR++r;;rPLnLL8889dg6;re;GGv*wGi7HHq&--@r9-;hg+RRRRRRRRRRRR",
"RRRRRRRRRRRRRRggr;;*rrnLP88&&e*0eq0;7nn8JJJnnn67*-&----g10+RRRRRRRRRRR",
"RRRRRRRRRRRRRR+0&-*67qe9%M&;&&+N9&76qJnnncKKn77799*-;-97;0RRRRRRRRRRRR",
"RRRRRRRRRRRR%crra&6q7wwfgN#;;-#+&-&7HJLnFvGFGKG08=**&;79+RRRRRRRRRRRRR",
"RRRRRRRRRRRRgdGGppqmGtKKfc,=--#+--q9enJLeddnKKJJ9=gg*;H;r+RRRRRRRRRRRR",
"RRRRRRRRRRRRRvL8maFLKFnG-,V=&;N9--&0nGt0eedKLr9970g0&JJ;;%RRRRRRRRRRRR",
"RRRRRRRRRRR%HJLKmnnKanKKFnV:hnq9-&sa9HrrhF77panrrrrrrhrrRRRRRRRRRRRRRR",
"RRRRRRRRRRR%JdJJgnKPaKKnLH:hnn09&-as0*;qhh70pihhry8HHrhK:RRRRRRRRRRRRR",
"RRRRRRRRRRRRR#ncKgKKa**nnKnKHdd0&0*9***q9y0gd0rh798Hhn::RRRRRRRRRRRRRR",
"RRRRRRRRRRRRRRnLJKww*&KK=0nH0qgdnn9;;0rr7dOdd<>7d<----+RRRRRRRRRRRRRRR",
"RRRRRRRRRRRR+00J5Kn666==;=89000nG09;6rrkOds*=&*9dd--72%RRRRRRRRRRRRRRR",
"RRRRRRRRRRRRR99r55n:q9%;7qrr=ngJGhn*;@OkoO&&==99d&--++RRRRRRRRRRRRRRRR",
"RRRRRRRRRRRRRRR+66+R7qRqdg8n*gJ:HG#;6;kko*&-;+9sd&66+RRRRRRRRRRRRRRRRR",
"RRRRRRRRRRRRRRRR+#RRRRR+gJdnn:H+*O;+=Ok+==&-&ORsdR6;RRRRRRRRRRRRRRRRRR",
"RRRRRRRRRRRRRRRRRRRRRRR+K++G-Xll&==RRXkO6&&66XRRRRRRRRRRRRRRRRRRRRRRRR",
"RRRRRRRRRRRRRRRRRRRRRRRRRR;7--llO6=RRkkX6&6;XRRRRRRRRRRRRRRRRRRRRRRRRR",
"RRRRRRRRRRRRRRRRRRRRRRRRRR76X7XkkXRRRkkRRRRXRRRRRRRRRRRRRRRRRRRRRRRRRR",
"RRRRRRRRRRRRRRRRRRRRRRRRRRRRR7XllRRRXkXRRRRRRRRRRRRRRRRRRRRRRRRRRRRRRR",
"RRRRRRRRRRRRRRRRRRRRRRRRRRRRRRXNVXRRkkXRRRRRRRRRRRRRRRRRRRRRRRRRRRRRRR",
"RRRRRRRRRRRRRRRRRRRRRRRRRRRRRRRXVV+VVkRRRRRRRRRRRRRRRRRRRRRRRRRRRRRRRR",
"RRRRRRRRRRRRRRRRRRRRRRRRRRRRRRR+AAVVVORRRRRRRRRRRRRRRRRRRRRRRRRRRRRRRR",
"RRRRRRRRRRRRRRRRRRRRRRRRRRRRRRRRSAAAA+RRRRRRRRRRRRRRRRRRRRRRRRRRRRRRRR",
"RRRRRRRRRRRRRRRRRRRRRRRRRRRRRRRRSSSAARRRRRRRRRRRRRRRRRRRRRRRRRRRRRRRRR",
"RRRRRRRRRRRRRRRRRRRRRRRRRRRRRRRRZSSSSRRRRRRRRRRRRRRRRRRRRRRRRRRRRRRRRR",
"RRRRRRRRRRRRRRRRRRRRRRRRRRRRRRRR#DDD#RRRRRRRRRRRRRRRRRRRRRRRRRRRRRRRRR",
"RRRRRRRRRRRRRRRRRRRRRRRRRRRRRRRR#TYY#RRRRRRRRRRRRRRRRRRRRRRRRRRRRRRRRR",
"RRRRRRRRRRRRRRRRRRRRRRRRRRRRRRRR#TTY%RRRRRRRRRRRRRRRRRRRRRRRRRRRRRRRRR",
"RRRRRRRRRRRRRRRRRRRRRRRRRRRRRRRR#TTY#RRRRRRRRRRRRRRRRRRRRRRRRRRRRRRRRR",
"RRRRRRRRRRRRRRRRRRRRRRRRRRRRRRRR%TTY%RRRRRRRRRRRRRRRRRRRRRRRRRRRRRRRRR",
"RRRRRRRRRRRRRRRRRRRRRRRRRRRRRRRR#TTY#RRRRRRRRRRRRRRRRRRRRRRRRRRRRRRRRR",
"RRRRRRRRRRRRRRRRRRRRRRRRRRRRRRRRYTTY%RRRRRRRRRRRRRRRRRRRRRRRRRRRRRRRRR",
"RRRRRRRRRRRRRRRRRRRRRRRRRRRRRRRRYTTYARRRRRRRRRRRRRRRRRRRRRRRRRRRRRRRRR",
"RRRRRRRRRRRRRRRRRRRRRRRRRRRRRRRRYTTADRRRRRRRRRRRRRRRRRRRRRRRRRRRRRRRRR",
"RRRRRRRRRRRRRRRRRRRRRRRRRRRRRRRRXYTYXRRRRRRRRRRRRRRRRRRRRRRRRRRRRRRRRR",
"RRRRRRRRRRRRRRRRRRRRRRRRRRRRRRRRR   RRRRRRRRRRRRRRRRRRRRRRRRRRRRRRRRRR",
"RRRRRRRRRRRRRRRRRRRRRRRRRRRRRRRRRRRRRRRRRRRRRRRRRRRRRRRRRRRRRRRRRRRRRR"
};
