/* XPM */
static char *_ce4ae8848f145c78171990248ea1f21llvN99ecYEw8mgRJ[] = {
/* columns rows colors chars-per-pixel */
"70 70 99 2 ",
"   c None",
".  c #4F2913",
"X  c #4F311E",
"o  c #53321E",
"O  c #56321C",
"+  c #4F3625",
"@  c #543523",
"#  c #543624",
"$  c #553726",
"%  c #553827",
"&  c #5A3B27",
"*  c #5E3B25",
"=  c #563B2A",
"-  c #563D2C",
";  c #573C2D",
":  c #573D2D",
">  c #573E2E",
",  c #593D2A",
"<  c #573F30",
"1  c #583F30",
"2  c #5B4231",
"3  c #584132",
"4  c #594133",
"5  c #5E4532",
"6  c #5A4335",
"7  c #5A4336",
"8  c #5A4436",
"9  c #5A4437",
"0  c #5B4639",
"q  c #5A4739",
"w  c #5B473A",
"e  c #5B483B",
"r  c #5B493C",
"t  c #5C493D",
"y  c #5C4B3E",
"u  c #5C4B3F",
"i  c #624937",
"p  c #5C4B40",
"a  c #5C4D41",
"s  c #5D4D41",
"d  c #5D4D42",
"f  c #5D4E42",
"g  c #5D4E43",
"h  c #5D4F43",
"j  c #5E4F44",
"k  c #5E4F45",
"l  c #5A5046",
"z  c #5D5044",
"x  c #5C5147",
"c  c #5E5146",
"v  c #5C5247",
"b  c #5D5247",
"n  c #5F5349",
"m  c #655444",
"M  c #665444",
"N  c #675544",
"B  c #615851",
"V  c #655C55",
"C  c #655D56",
"Z  c #665F58",
"A  c #666057",
"S  c #676159",
"D  c #676259",
"F  c #68625A",
"G  c #68635A",
"H  c #69635B",
"J  c #69645B",
"K  c #69645C",
"L  c #6A645C",
"P  c #6A655C",
"I  c #6B655D",
"U  c #6A665C",
"Y  c #6B665D",
"T  c #6B675D",
"R  c #6B665E",
"E  c #6C665E",
"W  c #6C675E",
"Q  c #6C675F",
"!  c #6C685E",
"~  c #6C685F",
"^  c #6D685F",
"/  c #6D695F",
"(  c #6D6860",
")  c #6D6960",
"_  c #6E6A61",
"`  c #6F6A62",
"'  c #6F6B62",
"]  c #706B62",
"[  c #706B63",
"{  c #706C63",
"}  c #746F67",
"|  c #767469",
" . c #868579",
".. c #86847B",
"X. c #88877B",
"o. c #918F88",
"O. c #929088",
"+. c #94928B",
"@. c #99978F",
/* pixels */
"& & & & & & & & & & & & & & & & * &   & & & & & & & & & & & & & & & & & & & & & * & & & & & & & & & & & *   & & & & & & & & & & & & & & & & ",
" . . . . . . . . . . . . . . . .X. .5  . . . . . . . . . . . . . . . . . . . . . . . . . . . . . . . .X. .i  . . . . . . . . . . . . . . . .",
" . . . . . . .X. . . . . . . . . . .i  . . . . . . . . . . . . . . . . . . . . . . . . . . . . . . . . . .i  . . . . . . . . . . . . . . . .",
" . . . . . . .X. . . . . . . . . . .N  . . . . . . . . . . . . . . . . . . . . . . . . . . . . . . . . . .N  . . . . . . . . . . . . . . . .",
"o.o.o.o.o.o.o.o.o.o.o.o.o.+.@.@.@.@.N +.@.@.@.+.+.+.+.+.+.+.+.+.+.+.+.+.o.o.o.o.o.o.o.o.o.o.o.o.o.+.@.@.@.M +.+.@.@.@.+.O.+.+.+.+.+.+.+.+.+.",
"o.o.o.o.o.o.o.o.o.o.o.O.o.+.@.@.@.@.N +.@.@.@.+.+.+.+.+.+.+.+.+.+.+.+.+.o.o.o.o.o.O.o.o.o.o.o.O.O.+.@.@.@.M +.+.@.@.@.+.+.+.+.+.+.+.+.+.+.+.",
"/ / / / Q / Q ^ / Q ^ ^ / / / / ^ ^ 2 / / Q W Q / Q / Q / Q / W ! ! W ! / / / / ^ ^ ^ ^ / Q ! ^ / / / / Q 2 Q ^ / Q / Q / Q / Q W W W W W W ",
"/ Q / Q / Q ^ ^ ^ ^ ^ ^ Q Q / / ^ Q 2 Q / ! W W Q / Q / Q Q W W W W W W / Q / Q ^ ^ ^ ^ ^ ^ ! ! / Q / / / 2 / Q Q / Q / Q / Q / W W W W W W ",
"Q / W W / ! W W ^ / W W ! ! ! ! W W 2 Q W ! W W W W W W W W Q Q W W W W W / Q / Q ^ ^ ^ W ! ! ! W W W W W 2 Q Q ! ! W W W W ! W Q W W W W W ",
"/ ! ! W W ! W W ! W W W W W W W W W 2 W W W W W U W U W W W Q R W W W W W W ! ! ! ! ! ! W W ! ! W W W W W 2 Q Q W W W W W W W W Q Q W W Q U ",
"W W W W W W W W W W W W U W U ! W W 2 U W U W U W U U W U W R U W W W H W W W W W W W W W W W W W U W U W 2 W U W U W H W W U W R U R R U W ",
"W W U W W W W W W W W W W U W U H W 2 W U W U W U W W U H U U U G U U U U W W W W W W W W W D W U W U W W 2 U W W W U W H H U U U H U U U U ",
"U D W U U U H U W H H U G W H W W H , W W U H H H U H H H H R U U U W U H W U H D W W W D W W W U H W H H , Q U W U H W H H W H R H H U R R ",
"H W W H H W W H H U U W U U W H H U o H H H U U H H H U U H H H H D D U U H H W W D D W W D D W U U W H U o H H D H H H U H H H H H U H D F ",
"D U D H U H H U D U H H H H D H H U o H H H H H H H H U U H U H U U D H D H W U D D W D D D W D D U H H U o H H H H H H D U U D D U U D H U ",
"W H H U D U H D U H U D U U D U H H o H H H H H H H H H D R D R H H U H U H H D W D D W W D D W U H H U H O H H H H H H H H H U U H H U H H ",
"D H H H H H H H F F F F R F H H D H o D H D H D F F F K D G F F F F F F K F F F K F F F K F F F H H H H H o D H D H H D H D H D F F K K D R ",
"D D D D D D D D H D F F F F H H H D o H D H D H F D F F D G F F K F R F D F F F F F F F D F F F D D H D D o H D H D D H D H D H F F D F D D ",
"D D Z Z D D D D Z D D D H H Z Z D Z o D H Z Z H Z D D D D D Z D D D D Z D D D Z D D D Z D D S S Z D D D D o D D Z Z D H D Z Z D Z D D D D D ",
"Z D D D Z Z H Z D D D D D Z D D D D . D Z D D Z D D D D D D H Z D D F Z D D F Z D D F Z D D S S D D Z D D . Z D D D D Z D H Z D D D D D D D ",
". . . . . . . . . . . . . . . . . . v . . . . . . . . . . . . . . . . . . . . . . . . . . . . . . . . . . l . . . . . . . . . . . . . . . . ",
"v v v v m x x x v v v v v v v v v v v v n l n l x x X l l l l l k l l l l l l l l l l l l l l l k j l l l l l l l l l l k + k k v v v m v v ",
"v v v v v v x x v v v v v v v v v v v v v v l v x x + l l l l l l l l l l l l l l l l l l l l l l l l l l l l l l l l l l X l x v v l n m x ",
"v v v v v v v x v v v v v v v v v v v v v v v v l k + l l l l l l l l l l l l l l l l l l l l l l l l l l l l l l l l l l + x x v v v v x n ",
"v v v v v v v v v v v v v v v v v v v v v v v v v v + l l l l l l l l l l l l l l l l l l l l l l l l l l l l l l l l l l + x x v v n n x v ",
"v v v v v v v v v v v v v v v v v v v v v v v v v v + l l l l l l l l l l l l l l l l l l l l l l l l l l l l l l l l l l + v v v v x v l n ",
"v v v v v v v x v v v v v v x l v v v v v v x x v v + l l l l l l l l l l l l l l l l l l l l l l l l l l l l l l l l l l + v v x v x x v v ",
"v v v v v v v c v v v v v x x n v v v v v x x x v v + l l l l l l l l l l l l l l l l k l l l l l l l l l l l k l l l l l + x x x x x x v v ",
"D D Z D D Z H C D D Z D D Z D Z D D Z H Z D S S S S 3 B B B B B B B B B B B B B B B B B B B B B B B B B B B B B B B B B B 3 D D Z F F F D D ",
"D D D H Z H A H D D D D Z H D Z D D D D Z D S Z S S # B B B B B B B B B B B B B B B B B B B B B B B B B B B B B B B B B B # D D F Z Z F Z Z ",
"c c c c c c s s s c c c n n n n n n n n m < 3 - - = # + = # 3 < 7 7 9 7 9 q 9 9 q B B B B B 3 n n x x n x n n n n 3 < - = # = > x n n x m n ",
"( Q / Q Q / Q s ( R ( R ( ( R ( Q Q Q Q ( ( ( ( ( ( ( ( R ( ( ( ( ( ' ' ' ' ' ' ` 3 B B 3 3 ' ' ' ( ( ( ( R ( R ( ( ( ( ( R ( R ( ( ( ( ( ( ",
"D Z D D Z H D s Z D D F D F F Z Z H D Z H Z Z H D Z D D Z H D Z Z D Z F D D Z F D ( 3 < ' ' Z F D D Z F Z F D D Z F D Z F F D Z D D Z D D Z ",
"D H Z Z D Z D s F F Z Z Z Z D D D Z D H Z D D Z D H Z Z D Z D H D Z D F Z F Z D F Z 3 ' F Z D F Z F Z D D F Z F Z D F Z D Z D F Z H H Z Z H ",
"Z H Z H D Z Z s D Z F D F D Z F D Z D Z D D D D Z H Z H D Z D Z D D Z Z F Z F D F D 3 F D D Z Z F Z F D D Z F Z F F D D Z D Z F D Z Z D D H ",
"D Z D D Z H H s D F Z D F Z D F Z H D Z H Z Z H D Z D D Z H D Z Z D D D D D F Z Z D 3 Z Z F F D D D F Z F Z D D D Z Z F F F Z D D Z H D D Z ",
"D Z D D Z D D s Z Z F D D D Z Z D H Z D Z H Z Z D Z D D H Z D H D F F Z Z Z F D D Z 3 D Z F F F Z F D Z F D Z F F Z Z D D D Z F Z D D Z Z D ",
"Z H H Z H Z Z s F D F Z Z D F D D Z Z D D D D D Z H H Z Z D D Z Z Z D D F D F Z F Z 3 F F F Z Z Z D F Z F Z D F D D F F Z F Z D H Z Z H D D ",
"D Z Z D D D Z 7 D F D Z Z D D D Z H H Z H Z Z H D Z Z D Z D Z H F D Z F D F D Z F D 3 F D Z F F F F D D D D Z Z Z F D Z F Z F D D D D D D Z ",
"D H Z D Z D D < Z Z D F D D Z D D Z D D Z D D Z D H Z D H Z D Z F Z D F Z Z D F Z D < Z D F Z F D Z Z F Z F F D Z D F Z D D F Z Z H Z Z D D ",
"r r r = < 1 # # $ = n n n n n n n n n n n n q y r r d r r q n n n n n n r r r < = # # $ = < n n n n n n n n n x n n q q r a r r q q n n n n ",
"F F ( F F F F F H R R F F R K K R F Q Q / R Q R Q R d R Q Q Q Q ( ( ( ( F F F F F ( F F ( F F F K K K K K ( ( R ( ( ( ( ( p ( ( ( R ( ( ( R ",
"Z Z Z Z Z Z Z Z Z Z Z Z Z Z Z Z Z Z Z Z Z Z Z Z Z Z p Z Z Z Z Z Z Z Z Z Z Z Z Z Z Z Z Z Z Z Z Z Z Z Z Z Z Z Z Z Z Z Z Z Z p Z Z Z Z Z Z Z Z ",
"Z Z Z Z Z Z Z Z Z Z Z Z Z Z Z Z Z Z Z Z Z Z Z Z Z Z y Z Z Z Z Z Z Z Z Z Z Z Z Z Z Z Z Z Z Z Z Z Z Z Z Z Z Z Z Z Z Z Z Z Z q Z Z Z Z Z Z Z Z ",
"Z Z Z Z Z Z Z Z Z Z Z Z Z Z Z Z Z Z Z Z Z Z Z Z Z Z j V Z Z Z Z Z Z Z Z Z Z Z Z Z Z Z Z Z Z Z Z Z Z Z Z Z Z Z Z Z Z Z Z Z k V Z Z Z Z Z Z Z ",
"Z Z Z Z Z Z Z Z Z Z Z Z Z Z Z Z Z Z Z Z Z Z Z Z Z Z j V Z Z Z Z Z Z Z Z Z Z Z Z Z Z Z Z Z Z Z Z Z Z Z Z Z Z Z Z Z Z Z Z Z k V Z Z Z Z Z Z Z ",
"Z Z Z Z Z Z Z Z Z Z Z Z Z Z Z Z Z Z Z Z Z Z Z Z Z Z j C Z Z Z Z Z Z Z Z Z Z Z Z Z Z Z Z Z Z Z Z Z Z Z Z Z Z Z Z Z Z Z Z Z k Z Z Z Z Z Z Z Z ",
"Z Z Z Z Z Z Z Z Z Z Z Z Z Z Z Z Z Z Z Z Z Z Z Z Z Z j Z Z Z Z Z Z Z Z Z Z Z Z Z Z Z Z Z Z Z Z Z Z Z Z Z Z Z Z Z Z Z Z Z Z k Z Z Z Z Z Z Z Z ",
"Z Z Z Z Z Z Z Z Z Z Z Z Z Z Z Z Z Z Z Z Z Z Z Z Z Z @ Z Z Z Z Z Z Z Z Z Z Z Z Z Z Z Z Z Z Z Z Z Z Z Z Z Z Z Z Z Z Z Z Z Z @ Z Z Z Z Z Z Z Z ",
"Z Z Z Z Z Z Z Z Z Z Z Z Z Z Z Z C D Z Z Z Z Z Z Z Z @ Z Z Z Z Z Z Z Z Z Z Z Z C Z Z Z Z Z Z Z Z Z Z Z Z Z D Z Z Z Z Z Z Z @ Z Z Z Z Z Z Z Z ",
"n x m p t t r d t j k k l a a k s z s s s d @ @ @ @ @ @ @ a a s a a a a n n n y y y y y k l k k l k k a a s s s a a # @ @ # @ @ a a a s a a ",
"( ( ( ( Q Q R t | } } } } } } } } } } } | } } } } } } } } } } } } } } } } } } } } } y ~ R R ( ( R R ( R ~ ( ( R ( ( R ( R R ( R ( R ( R R ( ",
"Z Z Z Z Z Z Z t ( R ( R ~ R ( R Q Q Q Q Q Q Q Q R Q Q Q Q Q Q Q R ( R ( R ( R ( R ( y Z Z Z Z Z A Z Z Z Z Z Z Z Z Z Z Z Z Z Z Z Z Z Z Z Z Z ",
"Z Z Z Z Z Z Z p R ( R ( R / R ( Q Q Q Q Q Q Q Q Q Q Q Q Q Q Q Q ( R ( R ( R ( R R R y Z Z Z Z Z Z Z Z Z Z Z Z Z Z Z Z Z Z Z Z Z Z Z Z Z Z Z ",
"Z Z Z Z Z Z Z x ( R ( R ( R ( R Q Q Q Q Q Q Q Q Q Q Q Q Q Q Q Q R ( R ( R ( R ( R ( c Z Z Z Z Z Z Z Z Z Z Z Z Z Z Z Z Z Z Z Z Z Z Z Z Z Z Z ",
"Z Z Z Z Z Z Z x R ( R ( R ( R ( Q Q Q Q Q Q Q Q Q Q Q Q Q Q Q Q ( R ( R ( R ( R ( R c Z Z Z Z Z Z Z Z Z Z Z Z Z Z Z Z Z Z Z Z Z Z Z Z Z Z Z ",
"Z Z Z Z Z Z Z m ( R ( R ( R ( R Q Q Q Q Q Q Q Q Q Q Q Q Q Q Q Q R ( R ( R ( R ( Q Q m Z Z Z Z Z Z Z Z Z Z Z Z Z Z Z Z Z Z Z Z Z Z Z Z Z Z Z ",
"Z Z Z Z Z Z Z 2 R ( R ( R ( R ( Q Q Q Q Q Q Q Q Q Q Q Q Q Q Q Q ( R ( R ( R ( R Q Q 3 Z Z Z Z Z Z Z Z Z Z Z Z Z Z Z Z Z Z Z Z Z Z Z Z Z Z Z ",
"Z Z Z Z Z Z Z : ( R ( R ( R ( R Q Q Q Q Q Q Q Q Q Q Q Q Q Q Q Q R ( R ( R ( R ( Q Q : Z Z Z Z Z Z Z Z Z Z Z Z Z Z Z Z Z Z Z Z Z Z Z C D Z Z ",
"Z Z Z Z Z Z D : R ( R ( R ( R ( Q Q Q Q Q Q Q Q Q Q Q Q Q Q Q Q ( R ( R ( R ( R Q / : Z Z Z Z Z Z Z Z Z Z Z Z Z Z Z Z Z Z Z Z Z Z Z Z C Z Z ",
"o o o O O O O O O O O O o o O O O O R O O O O O O O O O O O O O O O O O o O O O O O O O O O O O O O O O O C O O O O O O o o O O O O O O O o ",
"| | | | | | | | | | | | | | | | | | * | | | | | | | | | | | | | | | | | | | | | | | | | | | | | | | | | | * | | | | | | | | | | | | | | | | ",
"| | | | | | | | | | | | | | | | | | m | | | | | | | | | | | | | | | | | | | | | | | | | | | | | | | | | | M | | | | | | | | | | | | | | | | ",
"| | | | | | | | | | | | | | | | | | m | | | | | | | | | | | | | | | | | | | | | | | | | | | | | | | | | | M | | | | | | | | | | | | | | | | ",
"| | | | | | | | | | | | | | | | | | M | | | | | | | | | | | | | | | | | | | | | | | | | | | | | | | | | | m | | | | | | | | | | | | | | | | ",
"| | | | | | | | | | | | | | | | | | M | | | | | | | | | | | | | | | | | | | | | | | | | | | | | | | | | | m | | | | | | | | | | | | | | | | ",
"...... . .X.....X. . . . ..... .....M .. ..... ... ....... ..... ..... ... ....... ..... ..... ....... ...m .......... .....................",
"Z Z Z D C C Z Z C D C A Z C D C D C m D A A Z A Z D Z C D A C D A A Z A Z D Z C D A C D A A Z A Z D C A D m C D D C D A A A A A A A A A A A ",
"A A A A D A A A A A A A A A A A A A M A A A A A A A A A C A A A A A A A A A A A C D A A A A A A A A A A C m A A A A A A A A A A A A A A A A ",
"A A A A C D A A A A A A A A A A A A . A A A A A A A A A D A A A A A A A A A A A A A A A A A A A A A A A A . A A A A A A A A A A A A A A A A "
};
